%TF.GenerationSoftware,KiCad,Pcbnew,7.0.1*%
%TF.CreationDate,2023-04-24T16:46:27+02:00*%
%TF.ProjectId,STS,5354532e-6b69-4636-9164-5f7063625858,rev?*%
%TF.SameCoordinates,Original*%
%TF.FileFunction,Copper,L2,Bot*%
%TF.FilePolarity,Positive*%
%FSLAX46Y46*%
G04 Gerber Fmt 4.6, Leading zero omitted, Abs format (unit mm)*
G04 Created by KiCad (PCBNEW 7.0.1) date 2023-04-24 16:46:27*
%MOMM*%
%LPD*%
G01*
G04 APERTURE LIST*
G04 Aperture macros list*
%AMRoundRect*
0 Rectangle with rounded corners*
0 $1 Rounding radius*
0 $2 $3 $4 $5 $6 $7 $8 $9 X,Y pos of 4 corners*
0 Add a 4 corners polygon primitive as box body*
4,1,4,$2,$3,$4,$5,$6,$7,$8,$9,$2,$3,0*
0 Add four circle primitives for the rounded corners*
1,1,$1+$1,$2,$3*
1,1,$1+$1,$4,$5*
1,1,$1+$1,$6,$7*
1,1,$1+$1,$8,$9*
0 Add four rect primitives between the rounded corners*
20,1,$1+$1,$2,$3,$4,$5,0*
20,1,$1+$1,$4,$5,$6,$7,0*
20,1,$1+$1,$6,$7,$8,$9,0*
20,1,$1+$1,$8,$9,$2,$3,0*%
G04 Aperture macros list end*
%TA.AperFunction,SMDPad,CuDef*%
%ADD10RoundRect,0.500000X0.500000X1.500000X-0.500000X1.500000X-0.500000X-1.500000X0.500000X-1.500000X0*%
%TD*%
%TA.AperFunction,SMDPad,CuDef*%
%ADD11RoundRect,0.500000X-1.500000X0.500000X-1.500000X-0.500000X1.500000X-0.500000X1.500000X0.500000X0*%
%TD*%
%TA.AperFunction,ComponentPad*%
%ADD12C,1.524000*%
%TD*%
%TA.AperFunction,SMDPad,CuDef*%
%ADD13RoundRect,0.500000X1.500000X-0.500000X1.500000X0.500000X-1.500000X0.500000X-1.500000X-0.500000X0*%
%TD*%
%TA.AperFunction,ComponentPad*%
%ADD14R,1.700000X1.700000*%
%TD*%
%TA.AperFunction,ComponentPad*%
%ADD15O,1.700000X1.700000*%
%TD*%
%TA.AperFunction,ComponentPad*%
%ADD16R,1.600000X1.600000*%
%TD*%
%TA.AperFunction,ComponentPad*%
%ADD17O,1.600000X1.600000*%
%TD*%
%TA.AperFunction,SMDPad,CuDef*%
%ADD18RoundRect,0.237500X0.237500X-0.250000X0.237500X0.250000X-0.237500X0.250000X-0.237500X-0.250000X0*%
%TD*%
%TA.AperFunction,ViaPad*%
%ADD19C,0.600000*%
%TD*%
%TA.AperFunction,Conductor*%
%ADD20C,0.200000*%
%TD*%
%TA.AperFunction,Conductor*%
%ADD21C,0.250000*%
%TD*%
G04 APERTURE END LIST*
D10*
%TO.P,,1*%
%TO.N,Earth*%
X125200000Y-106300000D03*
%TD*%
%TO.P,,1*%
%TO.N,Net-(J1-Pin_1)*%
X127900000Y-106300000D03*
%TD*%
D11*
%TO.P,,1*%
%TO.N,N/C*%
X138600000Y-65100000D03*
%TD*%
%TO.P,,1*%
%TO.N,Earth*%
X138600000Y-62500000D03*
%TD*%
D12*
%TO.P,U2,1,SDA*%
%TO.N,Net-(A1-A5)*%
X136507000Y-92863000D03*
%TO.P,U2,2,SCL*%
%TO.N,Net-(A1-A4)*%
X136507000Y-95403000D03*
%TO.P,U2,3,GND*%
%TO.N,Earth*%
X136507000Y-97943000D03*
%TO.P,U2,4,VIN*%
%TO.N,Net-(A1-3V3)*%
X136507000Y-100483000D03*
%TD*%
D13*
%TO.P,GND,1*%
%TO.N,Earth*%
X105700000Y-105920000D03*
%TD*%
%TO.P,L1,1*%
%TO.N,/D7*%
X105700000Y-103380000D03*
%TD*%
%TO.P,GND,1*%
%TO.N,Earth*%
X105700000Y-100840000D03*
%TD*%
%TO.P,L2,1*%
%TO.N,/D4*%
X105700000Y-98300000D03*
%TD*%
D10*
%TO.P,REF\u002A\u002A7,1*%
%TO.N,/D3*%
X117260000Y-63800000D03*
%TD*%
%TO.P,REF\u002A\u002A5,1*%
%TO.N,Earth*%
X122340000Y-63800000D03*
%TD*%
D14*
%TO.P,U3,1,vcc*%
%TO.N,/5V*%
X113000000Y-111540000D03*
D15*
%TO.P,U3,2,gnd*%
%TO.N,Earth*%
X113000000Y-109000000D03*
%TO.P,U3,3,mosi*%
%TO.N,/D11*%
X113000000Y-106460000D03*
%TO.P,U3,4,miso*%
%TO.N,/D12*%
X113000000Y-103920000D03*
%TO.P,U3,5,cs*%
%TO.N,/D10*%
X113000000Y-101380000D03*
%TO.P,U3,6,sck*%
%TO.N,/D13*%
X113000000Y-98840000D03*
%TD*%
D10*
%TO.P,REF\u002A\u002A10,1*%
%TO.N,/D9*%
X109640000Y-63800000D03*
%TD*%
%TO.P,REF\u002A\u002A,1*%
%TO.N,N/C*%
X135040000Y-63800000D03*
%TD*%
%TO.P,REF\u002A\u002A11,1*%
%TO.N,Earth*%
X107100000Y-63800000D03*
%TD*%
D12*
%TO.P,U6,1,VCC*%
%TO.N,/5V*%
X113207000Y-68262500D03*
%TO.P,U6,2,GND*%
%TO.N,Earth*%
X110667000Y-68262500D03*
%TO.P,U6,3,RXD*%
%TO.N,/RX*%
X108127000Y-68262500D03*
%TO.P,U6,4,TXD*%
%TO.N,/TX*%
X105587000Y-68262500D03*
%TO.P,U6,5,SET*%
%TO.N,unconnected-(U6-SET-Pad5)*%
X103047000Y-68262500D03*
%TD*%
D10*
%TO.P,REF\u002A\u002A9,1*%
%TO.N,N/C*%
X112180000Y-63800000D03*
%TD*%
%TO.P,REF\u002A\u002A6,1*%
%TO.N,N/C*%
X119800000Y-63800000D03*
%TD*%
%TO.P,REF\u002A\u002A1,1*%
%TO.N,/D6*%
X132500000Y-63800000D03*
%TD*%
%TO.P,REF\u002A\u002A2,1*%
%TO.N,Earth*%
X129960000Y-63800000D03*
%TD*%
%TO.P,REF\u002A\u002A3,1*%
%TO.N,N/C*%
X127420000Y-63800000D03*
%TD*%
%TO.P,REF\u002A\u002A8,1*%
%TO.N,Earth*%
X114720000Y-63800000D03*
%TD*%
D16*
%TO.P,A1,1,D1/TX*%
%TO.N,/TX*%
X117697000Y-71484000D03*
D17*
%TO.P,A1,2,D0/RX*%
%TO.N,/RX*%
X117697000Y-74024000D03*
%TO.P,A1,3,~{RESET}*%
%TO.N,unconnected-(A1-~{RESET}-Pad3)*%
X117697000Y-76564000D03*
%TO.P,A1,4,GND*%
%TO.N,Earth*%
X117697000Y-79104000D03*
%TO.P,A1,5,D2*%
%TO.N,/D2*%
X117697000Y-81644000D03*
%TO.P,A1,6,D3*%
%TO.N,/D3*%
X117697000Y-84184000D03*
%TO.P,A1,7,D4*%
%TO.N,/D4*%
X117697000Y-86724000D03*
%TO.P,A1,8,D5*%
%TO.N,/D5*%
X117697000Y-89264000D03*
%TO.P,A1,9,D6*%
%TO.N,/D6*%
X117697000Y-91804000D03*
%TO.P,A1,10,D7*%
%TO.N,/D7*%
X117697000Y-94344000D03*
%TO.P,A1,11,D8*%
%TO.N,/D8*%
X117697000Y-96884000D03*
%TO.P,A1,12,D9*%
%TO.N,/D9*%
X117697000Y-99424000D03*
%TO.P,A1,13,D10*%
%TO.N,/D10*%
X117697000Y-101964000D03*
%TO.P,A1,14,D11*%
%TO.N,/D11*%
X117697000Y-104504000D03*
%TO.P,A1,15,D12*%
%TO.N,/D12*%
X117697000Y-107044000D03*
%TO.P,A1,16,D13*%
%TO.N,/D13*%
X132937000Y-107044000D03*
%TO.P,A1,17,3V3*%
%TO.N,Net-(A1-3V3)*%
X132937000Y-104504000D03*
%TO.P,A1,18,AREF*%
%TO.N,unconnected-(A1-AREF-Pad18)*%
X132937000Y-101964000D03*
%TO.P,A1,19,A0*%
%TO.N,unconnected-(A1-A0-Pad19)*%
X132937000Y-99424000D03*
%TO.P,A1,20,A1*%
%TO.N,unconnected-(A1-A1-Pad20)*%
X132937000Y-96884000D03*
%TO.P,A1,21,A2*%
%TO.N,unconnected-(A1-A2-Pad21)*%
X132937000Y-94344000D03*
%TO.P,A1,22,A3*%
%TO.N,unconnected-(A1-A3-Pad22)*%
X132937000Y-91804000D03*
%TO.P,A1,23,A4*%
%TO.N,Net-(A1-A4)*%
X132937000Y-89264000D03*
%TO.P,A1,24,A5*%
%TO.N,Net-(A1-A5)*%
X132937000Y-86724000D03*
%TO.P,A1,25,A6*%
%TO.N,unconnected-(A1-A6-Pad25)*%
X132937000Y-84184000D03*
%TO.P,A1,26,A7*%
%TO.N,unconnected-(A1-A7-Pad26)*%
X132937000Y-81644000D03*
%TO.P,A1,27,+5V*%
%TO.N,/5V*%
X132937000Y-79104000D03*
%TO.P,A1,28,~{RESET}*%
%TO.N,unconnected-(A1-~{RESET}-Pad28)*%
X132937000Y-76564000D03*
%TO.P,A1,29,GND*%
%TO.N,Earth*%
X132937000Y-74024000D03*
%TO.P,A1,30,VIN*%
%TO.N,Net-(A1-VIN)*%
X132937000Y-71484000D03*
%TD*%
D10*
%TO.P,REF\u002A\u002A4,1*%
%TO.N,/D5*%
X124880000Y-63800000D03*
%TD*%
D12*
%TO.P,U4,1,VCC*%
%TO.N,Net-(A1-3V3)*%
X137000000Y-70080000D03*
%TO.P,U4,2,GND*%
%TO.N,Earth*%
X137000000Y-72620000D03*
%TO.P,U4,3,SCL*%
%TO.N,Net-(A1-A4)*%
X137000000Y-75160000D03*
%TO.P,U4,4,SDA*%
%TO.N,Net-(A1-A5)*%
X137000000Y-77700000D03*
%TO.P,U4,5,XDA*%
%TO.N,unconnected-(U4-XDA-Pad5)*%
X137000000Y-80240000D03*
%TO.P,U4,6,XCL*%
%TO.N,unconnected-(U4-XCL-Pad6)*%
X137000000Y-82780000D03*
%TO.P,U4,7,ADD*%
%TO.N,unconnected-(U4-ADD-Pad7)*%
X137000000Y-85320000D03*
%TO.P,U4,8,INT*%
%TO.N,unconnected-(U4-INT-Pad8)*%
X137000000Y-87860000D03*
%TD*%
D18*
%TO.P,R1,1*%
%TO.N,Net-(J1-Pin_1)*%
X128900000Y-99425000D03*
%TO.P,R1,2*%
%TO.N,Net-(A1-VIN)*%
X128900000Y-97600000D03*
%TD*%
D19*
%TO.N,/D13*%
X124300000Y-100900000D03*
%TO.N,/D9*%
X114300000Y-72700000D03*
%TO.N,/D6*%
X132500000Y-66500000D03*
%TO.N,/D5*%
X125000000Y-66600000D03*
%TO.N,/D3*%
X117400000Y-66700000D03*
%TD*%
D20*
%TO.N,Earth*%
X125200000Y-106731371D02*
X121831371Y-110100000D01*
X125200000Y-106300000D02*
X125200000Y-106731371D01*
X120900000Y-110100000D02*
X114100000Y-110100000D01*
X129600000Y-110100000D02*
X120900000Y-110100000D01*
X121831371Y-110100000D02*
X120900000Y-110100000D01*
%TO.N,Net-(J1-Pin_1)*%
X128900000Y-103600000D02*
X128900000Y-99425000D01*
X127900000Y-104600000D02*
X128900000Y-103600000D01*
X127900000Y-106300000D02*
X127900000Y-104600000D01*
%TO.N,Earth*%
X114100000Y-110100000D02*
X113000000Y-109000000D01*
X130800000Y-108900000D02*
X129600000Y-110100000D01*
X130800000Y-104690000D02*
X130800000Y-108900000D01*
X130800000Y-104400000D02*
X130800000Y-102545365D01*
X130800000Y-104690000D02*
X130800000Y-104400000D01*
X130800000Y-102545365D02*
X132821365Y-100524000D01*
X135596000Y-74024000D02*
X132937000Y-74024000D01*
X135710000Y-73910000D02*
X137000000Y-72620000D01*
X134320000Y-75300000D02*
X135710000Y-73910000D01*
X135710000Y-73910000D02*
X135596000Y-74024000D01*
X130800000Y-76800000D02*
X132262040Y-75337960D01*
X130800000Y-104690000D02*
X130800000Y-76800000D01*
X132262040Y-75337960D02*
X132262040Y-75300000D01*
%TO.N,/D13*%
X124264000Y-100864000D02*
X124300000Y-100900000D01*
X115024000Y-100864000D02*
X124264000Y-100864000D01*
X113000000Y-98840000D02*
X115024000Y-100864000D01*
%TO.N,Earth*%
X128051371Y-61300000D02*
X137400000Y-61300000D01*
X137400000Y-61300000D02*
X138600000Y-62500000D01*
%TO.N,*%
X136100000Y-67600000D02*
X138600000Y-65100000D01*
X134100000Y-67600000D02*
X136100000Y-67600000D01*
%TO.N,Net-(A1-A4)*%
X132937000Y-89264000D02*
X135445000Y-86756000D01*
X135445000Y-86000000D02*
X135445000Y-94341000D01*
X135445000Y-76715000D02*
X135445000Y-86000000D01*
X135445000Y-86756000D02*
X135445000Y-86000000D01*
X135445000Y-94341000D02*
X136507000Y-95403000D01*
X137000000Y-75160000D02*
X135445000Y-76715000D01*
%TO.N,Net-(A1-3V3)*%
X138500000Y-71580000D02*
X137000000Y-70080000D01*
X138500000Y-100700000D02*
X138500000Y-71580000D01*
X134696000Y-104504000D02*
X138500000Y-100700000D01*
X132937000Y-104504000D02*
X134696000Y-104504000D01*
X136507000Y-100934000D02*
X136507000Y-100483000D01*
X132937000Y-104504000D02*
X136507000Y-100934000D01*
%TO.N,Earth*%
X133926000Y-100524000D02*
X136507000Y-97943000D01*
X132821365Y-100524000D02*
X133926000Y-100524000D01*
X132262040Y-75300000D02*
X134320000Y-75300000D01*
%TO.N,/D9*%
X111729000Y-70129000D02*
X114300000Y-72700000D01*
X111729000Y-67822605D02*
X111729000Y-70129000D01*
X109640000Y-65733605D02*
X111729000Y-67822605D01*
X109640000Y-63800000D02*
X109640000Y-65733605D01*
%TO.N,Earth*%
X113000000Y-109000000D02*
X108780000Y-109000000D01*
X108780000Y-109000000D02*
X105700000Y-105920000D01*
%TO.N,/D4*%
X106121000Y-98300000D02*
X117697000Y-86724000D01*
X105700000Y-98300000D02*
X106121000Y-98300000D01*
%TO.N,/D7*%
X115869654Y-94344000D02*
X117697000Y-94344000D01*
X106833654Y-103380000D02*
X115869654Y-94344000D01*
X105700000Y-103380000D02*
X106833654Y-103380000D01*
%TO.N,Earth*%
X102700000Y-98431371D02*
X102700000Y-94000000D01*
X105108629Y-100840000D02*
X102700000Y-98431371D01*
X102700000Y-94000000D02*
X102700000Y-103511371D01*
X102700000Y-89900000D02*
X102700000Y-94000000D01*
X105700000Y-100840000D02*
X105108629Y-100840000D01*
X105108629Y-105920000D02*
X105700000Y-105920000D01*
X102700000Y-103511371D02*
X105108629Y-105920000D01*
%TO.N,Net-(A1-VIN)*%
X130300000Y-74121000D02*
X132937000Y-71484000D01*
X130300000Y-96200000D02*
X130300000Y-74121000D01*
X128900000Y-97600000D02*
X130300000Y-96200000D01*
%TO.N,Earth*%
X102700000Y-84600000D02*
X111561302Y-75738698D01*
X104109000Y-68286395D02*
X111561302Y-75738698D01*
X111561302Y-75738698D02*
X114926605Y-79104000D01*
X102700000Y-89900000D02*
X102700000Y-84600000D01*
%TO.N,/D6*%
X132500000Y-63800000D02*
X132500000Y-66500000D01*
%TO.N,/D5*%
X125000000Y-63920000D02*
X125000000Y-66600000D01*
X124880000Y-63800000D02*
X125000000Y-63920000D01*
%TO.N,/D3*%
X117260000Y-66560000D02*
X117400000Y-66700000D01*
X117260000Y-63800000D02*
X117260000Y-66560000D01*
%TO.N,*%
X135040000Y-66660000D02*
X135040000Y-63800000D01*
X134100000Y-67600000D02*
X135040000Y-66660000D01*
X126500000Y-67600000D02*
X127420000Y-66680000D01*
X126400000Y-67700000D02*
X126500000Y-67600000D01*
X126500000Y-67600000D02*
X134100000Y-67600000D01*
X127420000Y-66680000D02*
X127420000Y-63800000D01*
X118200000Y-67700000D02*
X126400000Y-67700000D01*
X118200000Y-67700000D02*
X119800000Y-66100000D01*
X119800000Y-66100000D02*
X119800000Y-63800000D01*
X112180000Y-65733605D02*
X114146395Y-67700000D01*
X112180000Y-63800000D02*
X112180000Y-65733605D01*
X114146395Y-67700000D02*
X118200000Y-67700000D01*
%TO.N,Earth*%
X114926605Y-79104000D02*
X117697000Y-79104000D01*
X104109000Y-66791000D02*
X104109000Y-68286395D01*
X107100000Y-63800000D02*
X104109000Y-66791000D01*
X110667000Y-68262500D02*
X107100000Y-64695500D01*
X107100000Y-64695500D02*
X107100000Y-63800000D01*
X128051371Y-61300000D02*
X129960000Y-63208629D01*
X124248629Y-61300000D02*
X128051371Y-61300000D01*
X129960000Y-63208629D02*
X129960000Y-63800000D01*
X122340000Y-63208629D02*
X124248629Y-61300000D01*
X116628629Y-61300000D02*
X120431371Y-61300000D01*
X120431371Y-61300000D02*
X122340000Y-63208629D01*
X114720000Y-63208629D02*
X116628629Y-61300000D01*
X122340000Y-63208629D02*
X122340000Y-63800000D01*
X114720000Y-63208629D02*
X114720000Y-63800000D01*
X109008629Y-61300000D02*
X112811371Y-61300000D01*
X112811371Y-61300000D02*
X114720000Y-63208629D01*
X107100000Y-63208629D02*
X109008629Y-61300000D01*
X107100000Y-63800000D02*
X107100000Y-63208629D01*
D21*
%TO.N,/RX*%
X113888500Y-74024000D02*
X117697000Y-74024000D01*
X108127000Y-68262500D02*
X113888500Y-74024000D01*
%TD*%
M02*
