%TF.GenerationSoftware,KiCad,Pcbnew,7.0.1*%
%TF.CreationDate,2023-04-24T16:46:27+02:00*%
%TF.ProjectId,STS,5354532e-6b69-4636-9164-5f7063625858,rev?*%
%TF.SameCoordinates,Original*%
%TF.FileFunction,Legend,Bot*%
%TF.FilePolarity,Positive*%
%FSLAX46Y46*%
G04 Gerber Fmt 4.6, Leading zero omitted, Abs format (unit mm)*
G04 Created by KiCad (PCBNEW 7.0.1) date 2023-04-24 16:46:27*
%MOMM*%
%LPD*%
G01*
G04 APERTURE LIST*
%ADD10C,0.150000*%
%ADD11C,0.120000*%
G04 APERTURE END LIST*
D10*
%TO.C,U2*%
G36*
X139129608Y-97157009D02*
G01*
X139129793Y-97170719D01*
X139130347Y-97184189D01*
X139131270Y-97197418D01*
X139132562Y-97210407D01*
X139134224Y-97223155D01*
X139136254Y-97235663D01*
X139138654Y-97247931D01*
X139141423Y-97259958D01*
X139144562Y-97271744D01*
X139148070Y-97283290D01*
X139150613Y-97290854D01*
X139154680Y-97301918D01*
X139159094Y-97312667D01*
X139163856Y-97323104D01*
X139168966Y-97333227D01*
X139174423Y-97343036D01*
X139180229Y-97352532D01*
X139186382Y-97361715D01*
X139192882Y-97370584D01*
X139199731Y-97379140D01*
X139206927Y-97387383D01*
X139211918Y-97392704D01*
X139219681Y-97400413D01*
X139227766Y-97407788D01*
X139236173Y-97414827D01*
X139244902Y-97421532D01*
X139253953Y-97427902D01*
X139263326Y-97433937D01*
X139273021Y-97439637D01*
X139283039Y-97445002D01*
X139293378Y-97450032D01*
X139304039Y-97454728D01*
X139311325Y-97457672D01*
X139322470Y-97461775D01*
X139333925Y-97465475D01*
X139345689Y-97468770D01*
X139357762Y-97471663D01*
X139370144Y-97474151D01*
X139382835Y-97476237D01*
X139395835Y-97477918D01*
X139409144Y-97479196D01*
X139422763Y-97480071D01*
X139436690Y-97480541D01*
X139446147Y-97480631D01*
X139456549Y-97480546D01*
X139466751Y-97480291D01*
X139476753Y-97479867D01*
X139486554Y-97479272D01*
X139500880Y-97478062D01*
X139514755Y-97476470D01*
X139528180Y-97474496D01*
X139541154Y-97472140D01*
X139553677Y-97469401D01*
X139565749Y-97466281D01*
X139577370Y-97462778D01*
X139588541Y-97458893D01*
X139599297Y-97454613D01*
X139609675Y-97450015D01*
X139619676Y-97445099D01*
X139629299Y-97439865D01*
X139638544Y-97434314D01*
X139647411Y-97428445D01*
X139655900Y-97422258D01*
X139664012Y-97415754D01*
X139671745Y-97408932D01*
X139679101Y-97401792D01*
X139683795Y-97396856D01*
X139690491Y-97389204D01*
X139696838Y-97381268D01*
X139702838Y-97373049D01*
X139708490Y-97364547D01*
X139713795Y-97355761D01*
X139718752Y-97346692D01*
X139723360Y-97337340D01*
X139727622Y-97327704D01*
X139731535Y-97317785D01*
X139735101Y-97307583D01*
X139737284Y-97300624D01*
X139740253Y-97289979D01*
X139742929Y-97279112D01*
X139745313Y-97268021D01*
X139747405Y-97256706D01*
X139749206Y-97245169D01*
X139750714Y-97233408D01*
X139751930Y-97221424D01*
X139752855Y-97209216D01*
X139753487Y-97196786D01*
X139753828Y-97184132D01*
X139753893Y-97175572D01*
X139753893Y-96574002D01*
X139631772Y-96574002D01*
X139631772Y-97166046D01*
X139631684Y-97175824D01*
X139631292Y-97188508D01*
X139630588Y-97200787D01*
X139629571Y-97212661D01*
X139628241Y-97224131D01*
X139626598Y-97235196D01*
X139624642Y-97245857D01*
X139622374Y-97256113D01*
X139621758Y-97258614D01*
X139619059Y-97268308D01*
X139615972Y-97277604D01*
X139611565Y-97288667D01*
X139606551Y-97299109D01*
X139600928Y-97308931D01*
X139594696Y-97318133D01*
X139589273Y-97325048D01*
X139581847Y-97333052D01*
X139573765Y-97340423D01*
X139565027Y-97347163D01*
X139555633Y-97353270D01*
X139545583Y-97358745D01*
X139534877Y-97363588D01*
X139530411Y-97365348D01*
X139521126Y-97368554D01*
X139511345Y-97371332D01*
X139501067Y-97373683D01*
X139490294Y-97375607D01*
X139479024Y-97377103D01*
X139467259Y-97378171D01*
X139454997Y-97378812D01*
X139442239Y-97379026D01*
X139430227Y-97378807D01*
X139418616Y-97378148D01*
X139407406Y-97377051D01*
X139396596Y-97375515D01*
X139386187Y-97373540D01*
X139376179Y-97371126D01*
X139366571Y-97368274D01*
X139357365Y-97364982D01*
X139344306Y-97359222D01*
X139332149Y-97352474D01*
X139320893Y-97344739D01*
X139310539Y-97336016D01*
X139301086Y-97326306D01*
X139298136Y-97322850D01*
X139289843Y-97311916D01*
X139282365Y-97300179D01*
X139275703Y-97287638D01*
X139269857Y-97274295D01*
X139266413Y-97264954D01*
X139263331Y-97255256D01*
X139260612Y-97245201D01*
X139258256Y-97234789D01*
X139256262Y-97224021D01*
X139254630Y-97212895D01*
X139253361Y-97201413D01*
X139252455Y-97189574D01*
X139251911Y-97177378D01*
X139251730Y-97164825D01*
X139251730Y-96574002D01*
X139129608Y-96574002D01*
X139129608Y-97157009D01*
G37*
G36*
X138367571Y-97465000D02*
G01*
X138959127Y-97465000D01*
X138959127Y-97358510D01*
X138726852Y-97128433D01*
X138719792Y-97121470D01*
X138709516Y-97111248D01*
X138699619Y-97101291D01*
X138690099Y-97091601D01*
X138680957Y-97082177D01*
X138672193Y-97073020D01*
X138663807Y-97064128D01*
X138655798Y-97055503D01*
X138648167Y-97047144D01*
X138640915Y-97039051D01*
X138634039Y-97031224D01*
X138627493Y-97023593D01*
X138621225Y-97016086D01*
X138613303Y-97006270D01*
X138605876Y-96996676D01*
X138598946Y-96987303D01*
X138592512Y-96978152D01*
X138586573Y-96969222D01*
X138581131Y-96960513D01*
X138578596Y-96956242D01*
X138572660Y-96945728D01*
X138567367Y-96935405D01*
X138562718Y-96925272D01*
X138558713Y-96915331D01*
X138555353Y-96905580D01*
X138552636Y-96896021D01*
X138551730Y-96892250D01*
X138549406Y-96880813D01*
X138547836Y-96871019D01*
X138546601Y-96860987D01*
X138545699Y-96850716D01*
X138545131Y-96840207D01*
X138544898Y-96829460D01*
X138544891Y-96827281D01*
X138545111Y-96817125D01*
X138545773Y-96807112D01*
X138546877Y-96797242D01*
X138548421Y-96787516D01*
X138550407Y-96777932D01*
X138553372Y-96766620D01*
X138553928Y-96764755D01*
X138557569Y-96753839D01*
X138561896Y-96743437D01*
X138566911Y-96733551D01*
X138572612Y-96724180D01*
X138579001Y-96715325D01*
X138581283Y-96712487D01*
X138588630Y-96704313D01*
X138596750Y-96696825D01*
X138605643Y-96690025D01*
X138615309Y-96683911D01*
X138623954Y-96679341D01*
X138629399Y-96676828D01*
X138638850Y-96673099D01*
X138648886Y-96670001D01*
X138659506Y-96667536D01*
X138670710Y-96665703D01*
X138682499Y-96664502D01*
X138692351Y-96663997D01*
X138699985Y-96663883D01*
X138710609Y-96664113D01*
X138721048Y-96664802D01*
X138731303Y-96665950D01*
X138741373Y-96667558D01*
X138751258Y-96669625D01*
X138760959Y-96672152D01*
X138770475Y-96675138D01*
X138779807Y-96678583D01*
X138788954Y-96682488D01*
X138797916Y-96686852D01*
X138803788Y-96690017D01*
X138812469Y-96695052D01*
X138821016Y-96700358D01*
X138829430Y-96705934D01*
X138837711Y-96711781D01*
X138845859Y-96717899D01*
X138853874Y-96724286D01*
X138861756Y-96730945D01*
X138869505Y-96737873D01*
X138877121Y-96745072D01*
X138884603Y-96752542D01*
X138889518Y-96757672D01*
X138955463Y-96677805D01*
X138945802Y-96667829D01*
X138935871Y-96658236D01*
X138925670Y-96649024D01*
X138915197Y-96640195D01*
X138904455Y-96631748D01*
X138893442Y-96623683D01*
X138882158Y-96616000D01*
X138870604Y-96608699D01*
X138858779Y-96601781D01*
X138846684Y-96595244D01*
X138838471Y-96591099D01*
X138825869Y-96585250D01*
X138812885Y-96579976D01*
X138799520Y-96575278D01*
X138785772Y-96571155D01*
X138771641Y-96567607D01*
X138762009Y-96565561D01*
X138752207Y-96563772D01*
X138742235Y-96562237D01*
X138732093Y-96560959D01*
X138721782Y-96559936D01*
X138711300Y-96559169D01*
X138700649Y-96558658D01*
X138689828Y-96558402D01*
X138684354Y-96558370D01*
X138673228Y-96558527D01*
X138662292Y-96558997D01*
X138651544Y-96559780D01*
X138640985Y-96560877D01*
X138630615Y-96562288D01*
X138620434Y-96564011D01*
X138610442Y-96566049D01*
X138600639Y-96568399D01*
X138591025Y-96571063D01*
X138581600Y-96574041D01*
X138575421Y-96576200D01*
X138563358Y-96580901D01*
X138551714Y-96586092D01*
X138540491Y-96591770D01*
X138529687Y-96597937D01*
X138519303Y-96604593D01*
X138509338Y-96611737D01*
X138499794Y-96619370D01*
X138490669Y-96627491D01*
X138481949Y-96636093D01*
X138473740Y-96645168D01*
X138466042Y-96654716D01*
X138458856Y-96664738D01*
X138452182Y-96675233D01*
X138446018Y-96686201D01*
X138440366Y-96697642D01*
X138435226Y-96709556D01*
X138431734Y-96718779D01*
X138428585Y-96728221D01*
X138425780Y-96737882D01*
X138423319Y-96747761D01*
X138421201Y-96757860D01*
X138419426Y-96768178D01*
X138417995Y-96778714D01*
X138416908Y-96789470D01*
X138416163Y-96800444D01*
X138415763Y-96811637D01*
X138415686Y-96819221D01*
X138415900Y-96831930D01*
X138416541Y-96844409D01*
X138417610Y-96856659D01*
X138419106Y-96868681D01*
X138421029Y-96880473D01*
X138423380Y-96892036D01*
X138426158Y-96903371D01*
X138429364Y-96914476D01*
X138433005Y-96925402D01*
X138437088Y-96936321D01*
X138441614Y-96947231D01*
X138446583Y-96958135D01*
X138451995Y-96969030D01*
X138457849Y-96979918D01*
X138464146Y-96990798D01*
X138470885Y-97001671D01*
X138476233Y-97009850D01*
X138481833Y-97018086D01*
X138487687Y-97026377D01*
X138493794Y-97034724D01*
X138500155Y-97043127D01*
X138506769Y-97051585D01*
X138513636Y-97060099D01*
X138520757Y-97068670D01*
X138528130Y-97077296D01*
X138535758Y-97085978D01*
X138540983Y-97091796D01*
X138549041Y-97100577D01*
X138557369Y-97109516D01*
X138565968Y-97118615D01*
X138574837Y-97127872D01*
X138583977Y-97137288D01*
X138593387Y-97146863D01*
X138603068Y-97156596D01*
X138613019Y-97166489D01*
X138623241Y-97176540D01*
X138633733Y-97186751D01*
X138640878Y-97193646D01*
X138803788Y-97351671D01*
X138367571Y-97351671D01*
X138367571Y-97465000D01*
G37*
X134903475Y-98358000D02*
X134760618Y-98405619D01*
X134760618Y-98405619D02*
X134522523Y-98405619D01*
X134522523Y-98405619D02*
X134427285Y-98358000D01*
X134427285Y-98358000D02*
X134379666Y-98310380D01*
X134379666Y-98310380D02*
X134332047Y-98215142D01*
X134332047Y-98215142D02*
X134332047Y-98119904D01*
X134332047Y-98119904D02*
X134379666Y-98024666D01*
X134379666Y-98024666D02*
X134427285Y-97977047D01*
X134427285Y-97977047D02*
X134522523Y-97929428D01*
X134522523Y-97929428D02*
X134712999Y-97881809D01*
X134712999Y-97881809D02*
X134808237Y-97834190D01*
X134808237Y-97834190D02*
X134855856Y-97786571D01*
X134855856Y-97786571D02*
X134903475Y-97691333D01*
X134903475Y-97691333D02*
X134903475Y-97596095D01*
X134903475Y-97596095D02*
X134855856Y-97500857D01*
X134855856Y-97500857D02*
X134808237Y-97453238D01*
X134808237Y-97453238D02*
X134712999Y-97405619D01*
X134712999Y-97405619D02*
X134474904Y-97405619D01*
X134474904Y-97405619D02*
X134332047Y-97453238D01*
X133332047Y-98310380D02*
X133379666Y-98358000D01*
X133379666Y-98358000D02*
X133522523Y-98405619D01*
X133522523Y-98405619D02*
X133617761Y-98405619D01*
X133617761Y-98405619D02*
X133760618Y-98358000D01*
X133760618Y-98358000D02*
X133855856Y-98262761D01*
X133855856Y-98262761D02*
X133903475Y-98167523D01*
X133903475Y-98167523D02*
X133951094Y-97977047D01*
X133951094Y-97977047D02*
X133951094Y-97834190D01*
X133951094Y-97834190D02*
X133903475Y-97643714D01*
X133903475Y-97643714D02*
X133855856Y-97548476D01*
X133855856Y-97548476D02*
X133760618Y-97453238D01*
X133760618Y-97453238D02*
X133617761Y-97405619D01*
X133617761Y-97405619D02*
X133522523Y-97405619D01*
X133522523Y-97405619D02*
X133379666Y-97453238D01*
X133379666Y-97453238D02*
X133332047Y-97500857D01*
X132427285Y-98405619D02*
X132903475Y-98405619D01*
X132903475Y-98405619D02*
X132903475Y-97405619D01*
X134474904Y-94913238D02*
X134570142Y-94865619D01*
X134570142Y-94865619D02*
X134712999Y-94865619D01*
X134712999Y-94865619D02*
X134855856Y-94913238D01*
X134855856Y-94913238D02*
X134951094Y-95008476D01*
X134951094Y-95008476D02*
X134998713Y-95103714D01*
X134998713Y-95103714D02*
X135046332Y-95294190D01*
X135046332Y-95294190D02*
X135046332Y-95437047D01*
X135046332Y-95437047D02*
X134998713Y-95627523D01*
X134998713Y-95627523D02*
X134951094Y-95722761D01*
X134951094Y-95722761D02*
X134855856Y-95818000D01*
X134855856Y-95818000D02*
X134712999Y-95865619D01*
X134712999Y-95865619D02*
X134617761Y-95865619D01*
X134617761Y-95865619D02*
X134474904Y-95818000D01*
X134474904Y-95818000D02*
X134427285Y-95770380D01*
X134427285Y-95770380D02*
X134427285Y-95437047D01*
X134427285Y-95437047D02*
X134617761Y-95437047D01*
X133998713Y-95865619D02*
X133998713Y-94865619D01*
X133998713Y-94865619D02*
X133427285Y-95865619D01*
X133427285Y-95865619D02*
X133427285Y-94865619D01*
X132951094Y-95865619D02*
X132951094Y-94865619D01*
X132951094Y-94865619D02*
X132712999Y-94865619D01*
X132712999Y-94865619D02*
X132570142Y-94913238D01*
X132570142Y-94913238D02*
X132474904Y-95008476D01*
X132474904Y-95008476D02*
X132427285Y-95103714D01*
X132427285Y-95103714D02*
X132379666Y-95294190D01*
X132379666Y-95294190D02*
X132379666Y-95437047D01*
X132379666Y-95437047D02*
X132427285Y-95627523D01*
X132427285Y-95627523D02*
X132474904Y-95722761D01*
X132474904Y-95722761D02*
X132570142Y-95818000D01*
X132570142Y-95818000D02*
X132712999Y-95865619D01*
X132712999Y-95865619D02*
X132951094Y-95865619D01*
X134927285Y-100898000D02*
X134784428Y-100945619D01*
X134784428Y-100945619D02*
X134546333Y-100945619D01*
X134546333Y-100945619D02*
X134451095Y-100898000D01*
X134451095Y-100898000D02*
X134403476Y-100850380D01*
X134403476Y-100850380D02*
X134355857Y-100755142D01*
X134355857Y-100755142D02*
X134355857Y-100659904D01*
X134355857Y-100659904D02*
X134403476Y-100564666D01*
X134403476Y-100564666D02*
X134451095Y-100517047D01*
X134451095Y-100517047D02*
X134546333Y-100469428D01*
X134546333Y-100469428D02*
X134736809Y-100421809D01*
X134736809Y-100421809D02*
X134832047Y-100374190D01*
X134832047Y-100374190D02*
X134879666Y-100326571D01*
X134879666Y-100326571D02*
X134927285Y-100231333D01*
X134927285Y-100231333D02*
X134927285Y-100136095D01*
X134927285Y-100136095D02*
X134879666Y-100040857D01*
X134879666Y-100040857D02*
X134832047Y-99993238D01*
X134832047Y-99993238D02*
X134736809Y-99945619D01*
X134736809Y-99945619D02*
X134498714Y-99945619D01*
X134498714Y-99945619D02*
X134355857Y-99993238D01*
X133927285Y-100945619D02*
X133927285Y-99945619D01*
X133927285Y-99945619D02*
X133689190Y-99945619D01*
X133689190Y-99945619D02*
X133546333Y-99993238D01*
X133546333Y-99993238D02*
X133451095Y-100088476D01*
X133451095Y-100088476D02*
X133403476Y-100183714D01*
X133403476Y-100183714D02*
X133355857Y-100374190D01*
X133355857Y-100374190D02*
X133355857Y-100517047D01*
X133355857Y-100517047D02*
X133403476Y-100707523D01*
X133403476Y-100707523D02*
X133451095Y-100802761D01*
X133451095Y-100802761D02*
X133546333Y-100898000D01*
X133546333Y-100898000D02*
X133689190Y-100945619D01*
X133689190Y-100945619D02*
X133927285Y-100945619D01*
X132974904Y-100659904D02*
X132498714Y-100659904D01*
X133070142Y-100945619D02*
X132736809Y-99945619D01*
X132736809Y-99945619D02*
X132403476Y-100945619D01*
X134808237Y-92325619D02*
X134474904Y-93325619D01*
X134474904Y-93325619D02*
X134141571Y-92325619D01*
X133808237Y-93325619D02*
X133808237Y-92325619D01*
X133332047Y-93325619D02*
X133332047Y-92325619D01*
X133332047Y-92325619D02*
X132760619Y-93325619D01*
X132760619Y-93325619D02*
X132760619Y-92325619D01*
%TO.C,GND*%
X110561904Y-105510238D02*
X110657142Y-105462619D01*
X110657142Y-105462619D02*
X110799999Y-105462619D01*
X110799999Y-105462619D02*
X110942856Y-105510238D01*
X110942856Y-105510238D02*
X111038094Y-105605476D01*
X111038094Y-105605476D02*
X111085713Y-105700714D01*
X111085713Y-105700714D02*
X111133332Y-105891190D01*
X111133332Y-105891190D02*
X111133332Y-106034047D01*
X111133332Y-106034047D02*
X111085713Y-106224523D01*
X111085713Y-106224523D02*
X111038094Y-106319761D01*
X111038094Y-106319761D02*
X110942856Y-106415000D01*
X110942856Y-106415000D02*
X110799999Y-106462619D01*
X110799999Y-106462619D02*
X110704761Y-106462619D01*
X110704761Y-106462619D02*
X110561904Y-106415000D01*
X110561904Y-106415000D02*
X110514285Y-106367380D01*
X110514285Y-106367380D02*
X110514285Y-106034047D01*
X110514285Y-106034047D02*
X110704761Y-106034047D01*
X110085713Y-106462619D02*
X110085713Y-105462619D01*
X110085713Y-105462619D02*
X109514285Y-106462619D01*
X109514285Y-106462619D02*
X109514285Y-105462619D01*
X109038094Y-106462619D02*
X109038094Y-105462619D01*
X109038094Y-105462619D02*
X108799999Y-105462619D01*
X108799999Y-105462619D02*
X108657142Y-105510238D01*
X108657142Y-105510238D02*
X108561904Y-105605476D01*
X108561904Y-105605476D02*
X108514285Y-105700714D01*
X108514285Y-105700714D02*
X108466666Y-105891190D01*
X108466666Y-105891190D02*
X108466666Y-106034047D01*
X108466666Y-106034047D02*
X108514285Y-106224523D01*
X108514285Y-106224523D02*
X108561904Y-106319761D01*
X108561904Y-106319761D02*
X108657142Y-106415000D01*
X108657142Y-106415000D02*
X108799999Y-106462619D01*
X108799999Y-106462619D02*
X109038094Y-106462619D01*
%TO.C,L1*%
X110066666Y-103962619D02*
X110542856Y-103962619D01*
X110542856Y-103962619D02*
X110542856Y-102962619D01*
X109209523Y-103962619D02*
X109780951Y-103962619D01*
X109495237Y-103962619D02*
X109495237Y-102962619D01*
X109495237Y-102962619D02*
X109590475Y-103105476D01*
X109590475Y-103105476D02*
X109685713Y-103200714D01*
X109685713Y-103200714D02*
X109780951Y-103248333D01*
%TO.C,GND*%
X110561904Y-100510238D02*
X110657142Y-100462619D01*
X110657142Y-100462619D02*
X110799999Y-100462619D01*
X110799999Y-100462619D02*
X110942856Y-100510238D01*
X110942856Y-100510238D02*
X111038094Y-100605476D01*
X111038094Y-100605476D02*
X111085713Y-100700714D01*
X111085713Y-100700714D02*
X111133332Y-100891190D01*
X111133332Y-100891190D02*
X111133332Y-101034047D01*
X111133332Y-101034047D02*
X111085713Y-101224523D01*
X111085713Y-101224523D02*
X111038094Y-101319761D01*
X111038094Y-101319761D02*
X110942856Y-101415000D01*
X110942856Y-101415000D02*
X110799999Y-101462619D01*
X110799999Y-101462619D02*
X110704761Y-101462619D01*
X110704761Y-101462619D02*
X110561904Y-101415000D01*
X110561904Y-101415000D02*
X110514285Y-101367380D01*
X110514285Y-101367380D02*
X110514285Y-101034047D01*
X110514285Y-101034047D02*
X110704761Y-101034047D01*
X110085713Y-101462619D02*
X110085713Y-100462619D01*
X110085713Y-100462619D02*
X109514285Y-101462619D01*
X109514285Y-101462619D02*
X109514285Y-100462619D01*
X109038094Y-101462619D02*
X109038094Y-100462619D01*
X109038094Y-100462619D02*
X108799999Y-100462619D01*
X108799999Y-100462619D02*
X108657142Y-100510238D01*
X108657142Y-100510238D02*
X108561904Y-100605476D01*
X108561904Y-100605476D02*
X108514285Y-100700714D01*
X108514285Y-100700714D02*
X108466666Y-100891190D01*
X108466666Y-100891190D02*
X108466666Y-101034047D01*
X108466666Y-101034047D02*
X108514285Y-101224523D01*
X108514285Y-101224523D02*
X108561904Y-101319761D01*
X108561904Y-101319761D02*
X108657142Y-101415000D01*
X108657142Y-101415000D02*
X108799999Y-101462619D01*
X108799999Y-101462619D02*
X109038094Y-101462619D01*
%TO.C,L2*%
X110011666Y-98987526D02*
X110616428Y-98987526D01*
X110616428Y-98987526D02*
X110616428Y-97717526D01*
X109648809Y-97838478D02*
X109588333Y-97778002D01*
X109588333Y-97778002D02*
X109467380Y-97717526D01*
X109467380Y-97717526D02*
X109164999Y-97717526D01*
X109164999Y-97717526D02*
X109044047Y-97778002D01*
X109044047Y-97778002D02*
X108983571Y-97838478D01*
X108983571Y-97838478D02*
X108923094Y-97959430D01*
X108923094Y-97959430D02*
X108923094Y-98080383D01*
X108923094Y-98080383D02*
X108983571Y-98261811D01*
X108983571Y-98261811D02*
X109709285Y-98987526D01*
X109709285Y-98987526D02*
X108923094Y-98987526D01*
%TO.C,U4*%
X140266904Y-78045619D02*
X140266904Y-78855142D01*
X140266904Y-78855142D02*
X140219285Y-78950380D01*
X140219285Y-78950380D02*
X140171666Y-78998000D01*
X140171666Y-78998000D02*
X140076428Y-79045619D01*
X140076428Y-79045619D02*
X139885952Y-79045619D01*
X139885952Y-79045619D02*
X139790714Y-78998000D01*
X139790714Y-78998000D02*
X139743095Y-78950380D01*
X139743095Y-78950380D02*
X139695476Y-78855142D01*
X139695476Y-78855142D02*
X139695476Y-78045619D01*
X138790714Y-78378952D02*
X138790714Y-79045619D01*
X139028809Y-77998000D02*
X139266904Y-78712285D01*
X139266904Y-78712285D02*
X138647857Y-78712285D01*
X134428094Y-85496904D02*
X133951904Y-85496904D01*
X134523332Y-85782619D02*
X134189999Y-84782619D01*
X134189999Y-84782619D02*
X133856666Y-85782619D01*
X133523332Y-85782619D02*
X133523332Y-84782619D01*
X133523332Y-84782619D02*
X133285237Y-84782619D01*
X133285237Y-84782619D02*
X133142380Y-84830238D01*
X133142380Y-84830238D02*
X133047142Y-84925476D01*
X133047142Y-84925476D02*
X132999523Y-85020714D01*
X132999523Y-85020714D02*
X132951904Y-85211190D01*
X132951904Y-85211190D02*
X132951904Y-85354047D01*
X132951904Y-85354047D02*
X132999523Y-85544523D01*
X132999523Y-85544523D02*
X133047142Y-85639761D01*
X133047142Y-85639761D02*
X133142380Y-85735000D01*
X133142380Y-85735000D02*
X133285237Y-85782619D01*
X133285237Y-85782619D02*
X133523332Y-85782619D01*
X132523332Y-85782619D02*
X132523332Y-84782619D01*
X132523332Y-84782619D02*
X132285237Y-84782619D01*
X132285237Y-84782619D02*
X132142380Y-84830238D01*
X132142380Y-84830238D02*
X132047142Y-84925476D01*
X132047142Y-84925476D02*
X131999523Y-85020714D01*
X131999523Y-85020714D02*
X131951904Y-85211190D01*
X131951904Y-85211190D02*
X131951904Y-85354047D01*
X131951904Y-85354047D02*
X131999523Y-85544523D01*
X131999523Y-85544523D02*
X132047142Y-85639761D01*
X132047142Y-85639761D02*
X132142380Y-85735000D01*
X132142380Y-85735000D02*
X132285237Y-85782619D01*
X132285237Y-85782619D02*
X132523332Y-85782619D01*
X134451904Y-79702619D02*
X133785238Y-80702619D01*
X133785238Y-79702619D02*
X134451904Y-80702619D01*
X133404285Y-80702619D02*
X133404285Y-79702619D01*
X133404285Y-79702619D02*
X133166190Y-79702619D01*
X133166190Y-79702619D02*
X133023333Y-79750238D01*
X133023333Y-79750238D02*
X132928095Y-79845476D01*
X132928095Y-79845476D02*
X132880476Y-79940714D01*
X132880476Y-79940714D02*
X132832857Y-80131190D01*
X132832857Y-80131190D02*
X132832857Y-80274047D01*
X132832857Y-80274047D02*
X132880476Y-80464523D01*
X132880476Y-80464523D02*
X132928095Y-80559761D01*
X132928095Y-80559761D02*
X133023333Y-80655000D01*
X133023333Y-80655000D02*
X133166190Y-80702619D01*
X133166190Y-80702619D02*
X133404285Y-80702619D01*
X132451904Y-80416904D02*
X131975714Y-80416904D01*
X132547142Y-80702619D02*
X132213809Y-79702619D01*
X132213809Y-79702619D02*
X131880476Y-80702619D01*
X134523332Y-69542619D02*
X134189999Y-70542619D01*
X134189999Y-70542619D02*
X133856666Y-69542619D01*
X132951904Y-70447380D02*
X132999523Y-70495000D01*
X132999523Y-70495000D02*
X133142380Y-70542619D01*
X133142380Y-70542619D02*
X133237618Y-70542619D01*
X133237618Y-70542619D02*
X133380475Y-70495000D01*
X133380475Y-70495000D02*
X133475713Y-70399761D01*
X133475713Y-70399761D02*
X133523332Y-70304523D01*
X133523332Y-70304523D02*
X133570951Y-70114047D01*
X133570951Y-70114047D02*
X133570951Y-69971190D01*
X133570951Y-69971190D02*
X133523332Y-69780714D01*
X133523332Y-69780714D02*
X133475713Y-69685476D01*
X133475713Y-69685476D02*
X133380475Y-69590238D01*
X133380475Y-69590238D02*
X133237618Y-69542619D01*
X133237618Y-69542619D02*
X133142380Y-69542619D01*
X133142380Y-69542619D02*
X132999523Y-69590238D01*
X132999523Y-69590238D02*
X132951904Y-69637857D01*
X131951904Y-70447380D02*
X131999523Y-70495000D01*
X131999523Y-70495000D02*
X132142380Y-70542619D01*
X132142380Y-70542619D02*
X132237618Y-70542619D01*
X132237618Y-70542619D02*
X132380475Y-70495000D01*
X132380475Y-70495000D02*
X132475713Y-70399761D01*
X132475713Y-70399761D02*
X132523332Y-70304523D01*
X132523332Y-70304523D02*
X132570951Y-70114047D01*
X132570951Y-70114047D02*
X132570951Y-69971190D01*
X132570951Y-69971190D02*
X132523332Y-69780714D01*
X132523332Y-69780714D02*
X132475713Y-69685476D01*
X132475713Y-69685476D02*
X132380475Y-69590238D01*
X132380475Y-69590238D02*
X132237618Y-69542619D01*
X132237618Y-69542619D02*
X132142380Y-69542619D01*
X132142380Y-69542619D02*
X131999523Y-69590238D01*
X131999523Y-69590238D02*
X131951904Y-69637857D01*
X134094761Y-88322619D02*
X134094761Y-87322619D01*
X133618571Y-88322619D02*
X133618571Y-87322619D01*
X133618571Y-87322619D02*
X133047143Y-88322619D01*
X133047143Y-88322619D02*
X133047143Y-87322619D01*
X132713809Y-87322619D02*
X132142381Y-87322619D01*
X132428095Y-88322619D02*
X132428095Y-87322619D01*
X134380475Y-75575000D02*
X134237618Y-75622619D01*
X134237618Y-75622619D02*
X133999523Y-75622619D01*
X133999523Y-75622619D02*
X133904285Y-75575000D01*
X133904285Y-75575000D02*
X133856666Y-75527380D01*
X133856666Y-75527380D02*
X133809047Y-75432142D01*
X133809047Y-75432142D02*
X133809047Y-75336904D01*
X133809047Y-75336904D02*
X133856666Y-75241666D01*
X133856666Y-75241666D02*
X133904285Y-75194047D01*
X133904285Y-75194047D02*
X133999523Y-75146428D01*
X133999523Y-75146428D02*
X134189999Y-75098809D01*
X134189999Y-75098809D02*
X134285237Y-75051190D01*
X134285237Y-75051190D02*
X134332856Y-75003571D01*
X134332856Y-75003571D02*
X134380475Y-74908333D01*
X134380475Y-74908333D02*
X134380475Y-74813095D01*
X134380475Y-74813095D02*
X134332856Y-74717857D01*
X134332856Y-74717857D02*
X134285237Y-74670238D01*
X134285237Y-74670238D02*
X134189999Y-74622619D01*
X134189999Y-74622619D02*
X133951904Y-74622619D01*
X133951904Y-74622619D02*
X133809047Y-74670238D01*
X132809047Y-75527380D02*
X132856666Y-75575000D01*
X132856666Y-75575000D02*
X132999523Y-75622619D01*
X132999523Y-75622619D02*
X133094761Y-75622619D01*
X133094761Y-75622619D02*
X133237618Y-75575000D01*
X133237618Y-75575000D02*
X133332856Y-75479761D01*
X133332856Y-75479761D02*
X133380475Y-75384523D01*
X133380475Y-75384523D02*
X133428094Y-75194047D01*
X133428094Y-75194047D02*
X133428094Y-75051190D01*
X133428094Y-75051190D02*
X133380475Y-74860714D01*
X133380475Y-74860714D02*
X133332856Y-74765476D01*
X133332856Y-74765476D02*
X133237618Y-74670238D01*
X133237618Y-74670238D02*
X133094761Y-74622619D01*
X133094761Y-74622619D02*
X132999523Y-74622619D01*
X132999523Y-74622619D02*
X132856666Y-74670238D01*
X132856666Y-74670238D02*
X132809047Y-74717857D01*
X131904285Y-75622619D02*
X132380475Y-75622619D01*
X132380475Y-75622619D02*
X132380475Y-74622619D01*
X133951904Y-72130238D02*
X134047142Y-72082619D01*
X134047142Y-72082619D02*
X134189999Y-72082619D01*
X134189999Y-72082619D02*
X134332856Y-72130238D01*
X134332856Y-72130238D02*
X134428094Y-72225476D01*
X134428094Y-72225476D02*
X134475713Y-72320714D01*
X134475713Y-72320714D02*
X134523332Y-72511190D01*
X134523332Y-72511190D02*
X134523332Y-72654047D01*
X134523332Y-72654047D02*
X134475713Y-72844523D01*
X134475713Y-72844523D02*
X134428094Y-72939761D01*
X134428094Y-72939761D02*
X134332856Y-73035000D01*
X134332856Y-73035000D02*
X134189999Y-73082619D01*
X134189999Y-73082619D02*
X134094761Y-73082619D01*
X134094761Y-73082619D02*
X133951904Y-73035000D01*
X133951904Y-73035000D02*
X133904285Y-72987380D01*
X133904285Y-72987380D02*
X133904285Y-72654047D01*
X133904285Y-72654047D02*
X134094761Y-72654047D01*
X133475713Y-73082619D02*
X133475713Y-72082619D01*
X133475713Y-72082619D02*
X132904285Y-73082619D01*
X132904285Y-73082619D02*
X132904285Y-72082619D01*
X132428094Y-73082619D02*
X132428094Y-72082619D01*
X132428094Y-72082619D02*
X132189999Y-72082619D01*
X132189999Y-72082619D02*
X132047142Y-72130238D01*
X132047142Y-72130238D02*
X131951904Y-72225476D01*
X131951904Y-72225476D02*
X131904285Y-72320714D01*
X131904285Y-72320714D02*
X131856666Y-72511190D01*
X131856666Y-72511190D02*
X131856666Y-72654047D01*
X131856666Y-72654047D02*
X131904285Y-72844523D01*
X131904285Y-72844523D02*
X131951904Y-72939761D01*
X131951904Y-72939761D02*
X132047142Y-73035000D01*
X132047142Y-73035000D02*
X132189999Y-73082619D01*
X132189999Y-73082619D02*
X132428094Y-73082619D01*
X134428094Y-82242619D02*
X133761428Y-83242619D01*
X133761428Y-82242619D02*
X134428094Y-83242619D01*
X132809047Y-83147380D02*
X132856666Y-83195000D01*
X132856666Y-83195000D02*
X132999523Y-83242619D01*
X132999523Y-83242619D02*
X133094761Y-83242619D01*
X133094761Y-83242619D02*
X133237618Y-83195000D01*
X133237618Y-83195000D02*
X133332856Y-83099761D01*
X133332856Y-83099761D02*
X133380475Y-83004523D01*
X133380475Y-83004523D02*
X133428094Y-82814047D01*
X133428094Y-82814047D02*
X133428094Y-82671190D01*
X133428094Y-82671190D02*
X133380475Y-82480714D01*
X133380475Y-82480714D02*
X133332856Y-82385476D01*
X133332856Y-82385476D02*
X133237618Y-82290238D01*
X133237618Y-82290238D02*
X133094761Y-82242619D01*
X133094761Y-82242619D02*
X132999523Y-82242619D01*
X132999523Y-82242619D02*
X132856666Y-82290238D01*
X132856666Y-82290238D02*
X132809047Y-82337857D01*
X131904285Y-83242619D02*
X132380475Y-83242619D01*
X132380475Y-83242619D02*
X132380475Y-82242619D01*
X134404285Y-78115000D02*
X134261428Y-78162619D01*
X134261428Y-78162619D02*
X134023333Y-78162619D01*
X134023333Y-78162619D02*
X133928095Y-78115000D01*
X133928095Y-78115000D02*
X133880476Y-78067380D01*
X133880476Y-78067380D02*
X133832857Y-77972142D01*
X133832857Y-77972142D02*
X133832857Y-77876904D01*
X133832857Y-77876904D02*
X133880476Y-77781666D01*
X133880476Y-77781666D02*
X133928095Y-77734047D01*
X133928095Y-77734047D02*
X134023333Y-77686428D01*
X134023333Y-77686428D02*
X134213809Y-77638809D01*
X134213809Y-77638809D02*
X134309047Y-77591190D01*
X134309047Y-77591190D02*
X134356666Y-77543571D01*
X134356666Y-77543571D02*
X134404285Y-77448333D01*
X134404285Y-77448333D02*
X134404285Y-77353095D01*
X134404285Y-77353095D02*
X134356666Y-77257857D01*
X134356666Y-77257857D02*
X134309047Y-77210238D01*
X134309047Y-77210238D02*
X134213809Y-77162619D01*
X134213809Y-77162619D02*
X133975714Y-77162619D01*
X133975714Y-77162619D02*
X133832857Y-77210238D01*
X133404285Y-78162619D02*
X133404285Y-77162619D01*
X133404285Y-77162619D02*
X133166190Y-77162619D01*
X133166190Y-77162619D02*
X133023333Y-77210238D01*
X133023333Y-77210238D02*
X132928095Y-77305476D01*
X132928095Y-77305476D02*
X132880476Y-77400714D01*
X132880476Y-77400714D02*
X132832857Y-77591190D01*
X132832857Y-77591190D02*
X132832857Y-77734047D01*
X132832857Y-77734047D02*
X132880476Y-77924523D01*
X132880476Y-77924523D02*
X132928095Y-78019761D01*
X132928095Y-78019761D02*
X133023333Y-78115000D01*
X133023333Y-78115000D02*
X133166190Y-78162619D01*
X133166190Y-78162619D02*
X133404285Y-78162619D01*
X132451904Y-77876904D02*
X131975714Y-77876904D01*
X132547142Y-78162619D02*
X132213809Y-77162619D01*
X132213809Y-77162619D02*
X131880476Y-78162619D01*
%TO.C,R1*%
X127232619Y-98345833D02*
X126756428Y-98012500D01*
X127232619Y-97774405D02*
X126232619Y-97774405D01*
X126232619Y-97774405D02*
X126232619Y-98155357D01*
X126232619Y-98155357D02*
X126280238Y-98250595D01*
X126280238Y-98250595D02*
X126327857Y-98298214D01*
X126327857Y-98298214D02*
X126423095Y-98345833D01*
X126423095Y-98345833D02*
X126565952Y-98345833D01*
X126565952Y-98345833D02*
X126661190Y-98298214D01*
X126661190Y-98298214D02*
X126708809Y-98250595D01*
X126708809Y-98250595D02*
X126756428Y-98155357D01*
X126756428Y-98155357D02*
X126756428Y-97774405D01*
X127232619Y-99298214D02*
X127232619Y-98726786D01*
X127232619Y-99012500D02*
X126232619Y-99012500D01*
X126232619Y-99012500D02*
X126375476Y-98917262D01*
X126375476Y-98917262D02*
X126470714Y-98822024D01*
X126470714Y-98822024D02*
X126518333Y-98726786D01*
D11*
%TO.C,U2*%
X138285000Y-102388000D02*
X138285000Y-91212000D01*
X138285000Y-91212000D02*
X124315000Y-91212000D01*
X124315000Y-102388000D02*
X138285000Y-102388000D01*
X124315000Y-91212000D02*
X124315000Y-102388000D01*
X128843310Y-94303691D02*
G75*
G03*
X128843310Y-94303691I-1353310J0D01*
G01*
%TO.C,U4*%
X138270000Y-89130000D02*
X138270000Y-68556000D01*
X138270000Y-68556000D02*
X121760000Y-68556000D01*
X121760000Y-89130000D02*
X138270000Y-89130000D01*
X121760000Y-68556000D02*
X121760000Y-89130000D01*
X125667832Y-86844000D02*
G75*
G03*
X125667832Y-86844000I-1367832J0D01*
G01*
X125667832Y-70842000D02*
G75*
G03*
X125667832Y-70842000I-1367832J0D01*
G01*
%TO.C,R1*%
X128377500Y-98767224D02*
X128377500Y-98257776D01*
X129422500Y-98767224D02*
X129422500Y-98257776D01*
%TD*%
M02*
