%TF.GenerationSoftware,KiCad,Pcbnew,7.0.1*%
%TF.CreationDate,2023-04-05T12:26:27+02:00*%
%TF.ProjectId,STS,5354532e-6b69-4636-9164-5f7063625858,rev?*%
%TF.SameCoordinates,Original*%
%TF.FileFunction,Soldermask,Top*%
%TF.FilePolarity,Negative*%
%FSLAX46Y46*%
G04 Gerber Fmt 4.6, Leading zero omitted, Abs format (unit mm)*
G04 Created by KiCad (PCBNEW 7.0.1) date 2023-04-05 12:26:27*
%MOMM*%
%LPD*%
G01*
G04 APERTURE LIST*
%ADD10R,1.800000X1.800000*%
%ADD11C,1.800000*%
%ADD12R,1.700000X1.700000*%
%ADD13O,1.700000X1.700000*%
%ADD14C,1.524000*%
%ADD15C,2.200000*%
%ADD16C,2.000000*%
%ADD17R,1.600000X1.600000*%
%ADD18O,1.600000X1.600000*%
G04 APERTURE END LIST*
D10*
%TO.C,D2*%
X108825000Y-97750000D03*
D11*
X108825000Y-100290000D03*
%TD*%
D12*
%TO.C,U3*%
X113000000Y-111540000D03*
D13*
X113000000Y-109000000D03*
X113000000Y-106460000D03*
X113000000Y-103920000D03*
X113000000Y-101380000D03*
X113000000Y-98840000D03*
%TD*%
D14*
%TO.C,U6*%
X113207000Y-68262500D03*
X110667000Y-68262500D03*
X108127000Y-68262500D03*
X105587000Y-68262500D03*
X103047000Y-68262500D03*
%TD*%
D12*
%TO.C,M2*%
X108460000Y-63900000D03*
D13*
X111000000Y-63900000D03*
X113540000Y-63900000D03*
%TD*%
D15*
%TO.C,REF\u002A\u002A*%
X138000000Y-114000000D03*
%TD*%
D12*
%TO.C,M1*%
X130460000Y-64000000D03*
D13*
X133000000Y-64000000D03*
X135540000Y-64000000D03*
%TD*%
D16*
%TO.C,U1*%
X103612500Y-109750000D03*
X107612500Y-109750000D03*
X103612500Y-114250000D03*
X107612500Y-114250000D03*
%TD*%
D17*
%TO.C,A1*%
X117697000Y-71484000D03*
D18*
X117697000Y-74024000D03*
X117697000Y-76564000D03*
X117697000Y-79104000D03*
X117697000Y-81644000D03*
X117697000Y-84184000D03*
X117697000Y-86724000D03*
X117697000Y-89264000D03*
X117697000Y-91804000D03*
X117697000Y-94344000D03*
X117697000Y-96884000D03*
X117697000Y-99424000D03*
X117697000Y-101964000D03*
X117697000Y-104504000D03*
X117697000Y-107044000D03*
X132937000Y-107044000D03*
X132937000Y-104504000D03*
X132937000Y-101964000D03*
X132937000Y-99424000D03*
X132937000Y-96884000D03*
X132937000Y-94344000D03*
X132937000Y-91804000D03*
X132937000Y-89264000D03*
X132937000Y-86724000D03*
X132937000Y-84184000D03*
X132937000Y-81644000D03*
X132937000Y-79104000D03*
X132937000Y-76564000D03*
X132937000Y-74024000D03*
X132937000Y-71484000D03*
%TD*%
D15*
%TO.C,REF\u002A\u002A*%
X102000000Y-64000000D03*
%TD*%
D12*
%TO.C,M3*%
X119460000Y-64000000D03*
D13*
X122000000Y-64000000D03*
X124540000Y-64000000D03*
%TD*%
D10*
%TO.C,D1*%
X108825000Y-103750000D03*
D11*
X108825000Y-106290000D03*
%TD*%
D14*
%TO.C,U2*%
X136507000Y-92863000D03*
X136507000Y-95403000D03*
X136507000Y-97943000D03*
X136507000Y-100483000D03*
%TD*%
%TO.C,U4*%
X137000000Y-70080000D03*
X137000000Y-72620000D03*
X137000000Y-75160000D03*
X137000000Y-77700000D03*
X137000000Y-80240000D03*
X137000000Y-82780000D03*
X137000000Y-85320000D03*
X137000000Y-87860000D03*
%TD*%
M02*
