%TF.GenerationSoftware,KiCad,Pcbnew,7.0.1*%
%TF.CreationDate,2023-04-24T16:46:27+02:00*%
%TF.ProjectId,STS,5354532e-6b69-4636-9164-5f7063625858,rev?*%
%TF.SameCoordinates,Original*%
%TF.FileFunction,Copper,L1,Top*%
%TF.FilePolarity,Positive*%
%FSLAX46Y46*%
G04 Gerber Fmt 4.6, Leading zero omitted, Abs format (unit mm)*
G04 Created by KiCad (PCBNEW 7.0.1) date 2023-04-24 16:46:27*
%MOMM*%
%LPD*%
G01*
G04 APERTURE LIST*
%TA.AperFunction,ComponentPad*%
%ADD10C,1.524000*%
%TD*%
%TA.AperFunction,ComponentPad*%
%ADD11R,1.700000X1.700000*%
%TD*%
%TA.AperFunction,ComponentPad*%
%ADD12O,1.700000X1.700000*%
%TD*%
%TA.AperFunction,ComponentPad*%
%ADD13R,1.600000X1.600000*%
%TD*%
%TA.AperFunction,ComponentPad*%
%ADD14O,1.600000X1.600000*%
%TD*%
%TA.AperFunction,ViaPad*%
%ADD15C,0.600000*%
%TD*%
%TA.AperFunction,Conductor*%
%ADD16C,0.200000*%
%TD*%
%TA.AperFunction,Conductor*%
%ADD17C,0.250000*%
%TD*%
G04 APERTURE END LIST*
D10*
%TO.P,U2,1,SDA*%
%TO.N,Net-(A1-A5)*%
X136507000Y-92863000D03*
%TO.P,U2,2,SCL*%
%TO.N,Net-(A1-A4)*%
X136507000Y-95403000D03*
%TO.P,U2,3,GND*%
%TO.N,Earth*%
X136507000Y-97943000D03*
%TO.P,U2,4,VIN*%
%TO.N,Net-(A1-3V3)*%
X136507000Y-100483000D03*
%TD*%
D11*
%TO.P,U3,1,vcc*%
%TO.N,/5V*%
X113000000Y-111540000D03*
D12*
%TO.P,U3,2,gnd*%
%TO.N,Earth*%
X113000000Y-109000000D03*
%TO.P,U3,3,mosi*%
%TO.N,/D11*%
X113000000Y-106460000D03*
%TO.P,U3,4,miso*%
%TO.N,/D12*%
X113000000Y-103920000D03*
%TO.P,U3,5,cs*%
%TO.N,/D10*%
X113000000Y-101380000D03*
%TO.P,U3,6,sck*%
%TO.N,/D13*%
X113000000Y-98840000D03*
%TD*%
D10*
%TO.P,U6,1,VCC*%
%TO.N,/5V*%
X113207000Y-68262500D03*
%TO.P,U6,2,GND*%
%TO.N,Earth*%
X110667000Y-68262500D03*
%TO.P,U6,3,RXD*%
%TO.N,/RX*%
X108127000Y-68262500D03*
%TO.P,U6,4,TXD*%
%TO.N,/TX*%
X105587000Y-68262500D03*
%TO.P,U6,5,SET*%
%TO.N,unconnected-(U6-SET-Pad5)*%
X103047000Y-68262500D03*
%TD*%
D13*
%TO.P,A1,1,D1/TX*%
%TO.N,/TX*%
X117697000Y-71484000D03*
D14*
%TO.P,A1,2,D0/RX*%
%TO.N,/RX*%
X117697000Y-74024000D03*
%TO.P,A1,3,~{RESET}*%
%TO.N,unconnected-(A1-~{RESET}-Pad3)*%
X117697000Y-76564000D03*
%TO.P,A1,4,GND*%
%TO.N,Earth*%
X117697000Y-79104000D03*
%TO.P,A1,5,D2*%
%TO.N,/D2*%
X117697000Y-81644000D03*
%TO.P,A1,6,D3*%
%TO.N,/D3*%
X117697000Y-84184000D03*
%TO.P,A1,7,D4*%
%TO.N,/D4*%
X117697000Y-86724000D03*
%TO.P,A1,8,D5*%
%TO.N,/D5*%
X117697000Y-89264000D03*
%TO.P,A1,9,D6*%
%TO.N,/D6*%
X117697000Y-91804000D03*
%TO.P,A1,10,D7*%
%TO.N,/D7*%
X117697000Y-94344000D03*
%TO.P,A1,11,D8*%
%TO.N,/D8*%
X117697000Y-96884000D03*
%TO.P,A1,12,D9*%
%TO.N,/D9*%
X117697000Y-99424000D03*
%TO.P,A1,13,D10*%
%TO.N,/D10*%
X117697000Y-101964000D03*
%TO.P,A1,14,D11*%
%TO.N,/D11*%
X117697000Y-104504000D03*
%TO.P,A1,15,D12*%
%TO.N,/D12*%
X117697000Y-107044000D03*
%TO.P,A1,16,D13*%
%TO.N,/D13*%
X132937000Y-107044000D03*
%TO.P,A1,17,3V3*%
%TO.N,Net-(A1-3V3)*%
X132937000Y-104504000D03*
%TO.P,A1,18,AREF*%
%TO.N,unconnected-(A1-AREF-Pad18)*%
X132937000Y-101964000D03*
%TO.P,A1,19,A0*%
%TO.N,unconnected-(A1-A0-Pad19)*%
X132937000Y-99424000D03*
%TO.P,A1,20,A1*%
%TO.N,unconnected-(A1-A1-Pad20)*%
X132937000Y-96884000D03*
%TO.P,A1,21,A2*%
%TO.N,unconnected-(A1-A2-Pad21)*%
X132937000Y-94344000D03*
%TO.P,A1,22,A3*%
%TO.N,unconnected-(A1-A3-Pad22)*%
X132937000Y-91804000D03*
%TO.P,A1,23,A4*%
%TO.N,Net-(A1-A4)*%
X132937000Y-89264000D03*
%TO.P,A1,24,A5*%
%TO.N,Net-(A1-A5)*%
X132937000Y-86724000D03*
%TO.P,A1,25,A6*%
%TO.N,unconnected-(A1-A6-Pad25)*%
X132937000Y-84184000D03*
%TO.P,A1,26,A7*%
%TO.N,unconnected-(A1-A7-Pad26)*%
X132937000Y-81644000D03*
%TO.P,A1,27,+5V*%
%TO.N,/5V*%
X132937000Y-79104000D03*
%TO.P,A1,28,~{RESET}*%
%TO.N,unconnected-(A1-~{RESET}-Pad28)*%
X132937000Y-76564000D03*
%TO.P,A1,29,GND*%
%TO.N,Earth*%
X132937000Y-74024000D03*
%TO.P,A1,30,VIN*%
%TO.N,Net-(A1-VIN)*%
X132937000Y-71484000D03*
%TD*%
D10*
%TO.P,U4,1,VCC*%
%TO.N,Net-(A1-3V3)*%
X137000000Y-70080000D03*
%TO.P,U4,2,GND*%
%TO.N,Earth*%
X137000000Y-72620000D03*
%TO.P,U4,3,SCL*%
%TO.N,Net-(A1-A4)*%
X137000000Y-75160000D03*
%TO.P,U4,4,SDA*%
%TO.N,Net-(A1-A5)*%
X137000000Y-77700000D03*
%TO.P,U4,5,XDA*%
%TO.N,unconnected-(U4-XDA-Pad5)*%
X137000000Y-80240000D03*
%TO.P,U4,6,XCL*%
%TO.N,unconnected-(U4-XCL-Pad6)*%
X137000000Y-82780000D03*
%TO.P,U4,7,ADD*%
%TO.N,unconnected-(U4-ADD-Pad7)*%
X137000000Y-85320000D03*
%TO.P,U4,8,INT*%
%TO.N,unconnected-(U4-INT-Pad8)*%
X137000000Y-87860000D03*
%TD*%
D15*
%TO.N,/D13*%
X124300000Y-100900000D03*
%TO.N,/D9*%
X114300000Y-72700000D03*
%TO.N,/D6*%
X132500000Y-66500000D03*
%TO.N,/D5*%
X125000000Y-66600000D03*
%TO.N,/D3*%
X117400000Y-66700000D03*
%TD*%
D16*
%TO.N,/D13*%
X130444000Y-107044000D02*
X132937000Y-107044000D01*
X124300000Y-100900000D02*
X130444000Y-107044000D01*
%TO.N,Net-(A1-A5)*%
X135938000Y-83723000D02*
X135938000Y-79700000D01*
X135938000Y-79700000D02*
X135938000Y-92294000D01*
X132937000Y-86724000D02*
X135938000Y-83723000D01*
X135938000Y-78762000D02*
X135938000Y-79700000D01*
X135938000Y-92294000D02*
X136507000Y-92863000D01*
X137000000Y-77700000D02*
X135938000Y-78762000D01*
%TO.N,/D9*%
X114300000Y-72700000D02*
X114300000Y-96027000D01*
X114300000Y-96027000D02*
X117697000Y-99424000D01*
D17*
%TO.N,/5V*%
X114791991Y-111540000D02*
X113000000Y-111540000D01*
X122000000Y-104331991D02*
X114791991Y-111540000D01*
X122000000Y-90000000D02*
X122000000Y-104331991D01*
D16*
%TO.N,/D5*%
X120700000Y-86261000D02*
X117697000Y-89264000D01*
X120700000Y-70900000D02*
X120700000Y-86261000D01*
X125000000Y-66600000D02*
X120700000Y-70900000D01*
%TO.N,/D6*%
X121500000Y-88001000D02*
X117697000Y-91804000D01*
X121500000Y-77500000D02*
X121500000Y-88001000D01*
X132500000Y-66500000D02*
X121500000Y-77500000D01*
%TO.N,/D3*%
X120200000Y-81681000D02*
X117697000Y-84184000D01*
X120200000Y-69500000D02*
X120200000Y-81681000D01*
X117400000Y-66700000D02*
X120200000Y-69500000D01*
%TO.N,/D10*%
X117113000Y-101380000D02*
X117697000Y-101964000D01*
X113000000Y-101380000D02*
X117113000Y-101380000D01*
D17*
%TO.N,/5V*%
X105402500Y-111540000D02*
X113000000Y-111540000D01*
X101960000Y-108097500D02*
X105402500Y-111540000D01*
X101900000Y-66700000D02*
X111644500Y-66700000D01*
X101500000Y-67100000D02*
X101900000Y-66700000D01*
X101960000Y-108097500D02*
X101960000Y-69760000D01*
X101500000Y-69300000D02*
X101500000Y-67100000D01*
X111644500Y-66700000D02*
X113207000Y-68262500D01*
X101960000Y-69760000D02*
X101500000Y-69300000D01*
%TO.N,/D11*%
X113000000Y-106460000D02*
X115741000Y-106460000D01*
X115741000Y-106460000D02*
X117697000Y-104504000D01*
%TO.N,/D12*%
X118741000Y-106000000D02*
X117697000Y-107044000D01*
X113000000Y-103920000D02*
X113541000Y-103379000D01*
X113541000Y-103379000D02*
X118162991Y-103379000D01*
X119000000Y-106000000D02*
X118741000Y-106000000D01*
X118162991Y-103379000D02*
X119000000Y-104216009D01*
X119000000Y-104216009D02*
X119000000Y-106000000D01*
%TO.N,/5V*%
X122000000Y-90000000D02*
X125000000Y-87000000D01*
X125041000Y-87000000D02*
X132937000Y-79104000D01*
X125000000Y-87000000D02*
X125041000Y-87000000D01*
X124192000Y-87849000D02*
X132937000Y-79104000D01*
%TO.N,/TX*%
X108808500Y-71484000D02*
X105587000Y-68262500D01*
X117697000Y-71484000D02*
X108808500Y-71484000D01*
%TD*%
M02*
