%TF.GenerationSoftware,KiCad,Pcbnew,7.0.1*%
%TF.CreationDate,2023-04-24T16:46:27+02:00*%
%TF.ProjectId,STS,5354532e-6b69-4636-9164-5f7063625858,rev?*%
%TF.SameCoordinates,Original*%
%TF.FileFunction,Legend,Top*%
%TF.FilePolarity,Positive*%
%FSLAX46Y46*%
G04 Gerber Fmt 4.6, Leading zero omitted, Abs format (unit mm)*
G04 Created by KiCad (PCBNEW 7.0.1) date 2023-04-24 16:46:27*
%MOMM*%
%LPD*%
G01*
G04 APERTURE LIST*
%ADD10C,0.150000*%
%ADD11C,0.120000*%
G04 APERTURE END LIST*
D10*
%TO.C,*%
%TO.C,U6*%
X99462619Y-69174404D02*
X100272142Y-69174404D01*
X100272142Y-69174404D02*
X100367380Y-69126785D01*
X100367380Y-69126785D02*
X100415000Y-69079166D01*
X100415000Y-69079166D02*
X100462619Y-68983928D01*
X100462619Y-68983928D02*
X100462619Y-68793452D01*
X100462619Y-68793452D02*
X100415000Y-68698214D01*
X100415000Y-68698214D02*
X100367380Y-68650595D01*
X100367380Y-68650595D02*
X100272142Y-68602976D01*
X100272142Y-68602976D02*
X99462619Y-68602976D01*
X99462619Y-67698214D02*
X99462619Y-67888690D01*
X99462619Y-67888690D02*
X99510238Y-67983928D01*
X99510238Y-67983928D02*
X99557857Y-68031547D01*
X99557857Y-68031547D02*
X99700714Y-68126785D01*
X99700714Y-68126785D02*
X99891190Y-68174404D01*
X99891190Y-68174404D02*
X100272142Y-68174404D01*
X100272142Y-68174404D02*
X100367380Y-68126785D01*
X100367380Y-68126785D02*
X100415000Y-68079166D01*
X100415000Y-68079166D02*
X100462619Y-67983928D01*
X100462619Y-67983928D02*
X100462619Y-67793452D01*
X100462619Y-67793452D02*
X100415000Y-67698214D01*
X100415000Y-67698214D02*
X100367380Y-67650595D01*
X100367380Y-67650595D02*
X100272142Y-67602976D01*
X100272142Y-67602976D02*
X100034047Y-67602976D01*
X100034047Y-67602976D02*
X99938809Y-67650595D01*
X99938809Y-67650595D02*
X99891190Y-67698214D01*
X99891190Y-67698214D02*
X99843571Y-67793452D01*
X99843571Y-67793452D02*
X99843571Y-67983928D01*
X99843571Y-67983928D02*
X99891190Y-68079166D01*
X99891190Y-68079166D02*
X99938809Y-68126785D01*
X99938809Y-68126785D02*
X100034047Y-68174404D01*
X105049619Y-72699404D02*
X105049619Y-72127976D01*
X106049619Y-72413690D02*
X105049619Y-72413690D01*
X105049619Y-71889880D02*
X106049619Y-71223214D01*
X105049619Y-71223214D02*
X106049619Y-71889880D01*
X106049619Y-70842261D02*
X105049619Y-70842261D01*
X105049619Y-70842261D02*
X105049619Y-70604166D01*
X105049619Y-70604166D02*
X105097238Y-70461309D01*
X105097238Y-70461309D02*
X105192476Y-70366071D01*
X105192476Y-70366071D02*
X105287714Y-70318452D01*
X105287714Y-70318452D02*
X105478190Y-70270833D01*
X105478190Y-70270833D02*
X105621047Y-70270833D01*
X105621047Y-70270833D02*
X105811523Y-70318452D01*
X105811523Y-70318452D02*
X105906761Y-70366071D01*
X105906761Y-70366071D02*
X106002000Y-70461309D01*
X106002000Y-70461309D02*
X106049619Y-70604166D01*
X106049619Y-70604166D02*
X106049619Y-70842261D01*
X103462000Y-72556547D02*
X103509619Y-72413690D01*
X103509619Y-72413690D02*
X103509619Y-72175595D01*
X103509619Y-72175595D02*
X103462000Y-72080357D01*
X103462000Y-72080357D02*
X103414380Y-72032738D01*
X103414380Y-72032738D02*
X103319142Y-71985119D01*
X103319142Y-71985119D02*
X103223904Y-71985119D01*
X103223904Y-71985119D02*
X103128666Y-72032738D01*
X103128666Y-72032738D02*
X103081047Y-72080357D01*
X103081047Y-72080357D02*
X103033428Y-72175595D01*
X103033428Y-72175595D02*
X102985809Y-72366071D01*
X102985809Y-72366071D02*
X102938190Y-72461309D01*
X102938190Y-72461309D02*
X102890571Y-72508928D01*
X102890571Y-72508928D02*
X102795333Y-72556547D01*
X102795333Y-72556547D02*
X102700095Y-72556547D01*
X102700095Y-72556547D02*
X102604857Y-72508928D01*
X102604857Y-72508928D02*
X102557238Y-72461309D01*
X102557238Y-72461309D02*
X102509619Y-72366071D01*
X102509619Y-72366071D02*
X102509619Y-72127976D01*
X102509619Y-72127976D02*
X102557238Y-71985119D01*
X102985809Y-71556547D02*
X102985809Y-71223214D01*
X103509619Y-71080357D02*
X103509619Y-71556547D01*
X103509619Y-71556547D02*
X102509619Y-71556547D01*
X102509619Y-71556547D02*
X102509619Y-71080357D01*
X102509619Y-70794642D02*
X102509619Y-70223214D01*
X103509619Y-70508928D02*
X102509619Y-70508928D01*
X110177238Y-72199404D02*
X110129619Y-72294642D01*
X110129619Y-72294642D02*
X110129619Y-72437499D01*
X110129619Y-72437499D02*
X110177238Y-72580356D01*
X110177238Y-72580356D02*
X110272476Y-72675594D01*
X110272476Y-72675594D02*
X110367714Y-72723213D01*
X110367714Y-72723213D02*
X110558190Y-72770832D01*
X110558190Y-72770832D02*
X110701047Y-72770832D01*
X110701047Y-72770832D02*
X110891523Y-72723213D01*
X110891523Y-72723213D02*
X110986761Y-72675594D01*
X110986761Y-72675594D02*
X111082000Y-72580356D01*
X111082000Y-72580356D02*
X111129619Y-72437499D01*
X111129619Y-72437499D02*
X111129619Y-72342261D01*
X111129619Y-72342261D02*
X111082000Y-72199404D01*
X111082000Y-72199404D02*
X111034380Y-72151785D01*
X111034380Y-72151785D02*
X110701047Y-72151785D01*
X110701047Y-72151785D02*
X110701047Y-72342261D01*
X111129619Y-71723213D02*
X110129619Y-71723213D01*
X110129619Y-71723213D02*
X111129619Y-71151785D01*
X111129619Y-71151785D02*
X110129619Y-71151785D01*
X111129619Y-70675594D02*
X110129619Y-70675594D01*
X110129619Y-70675594D02*
X110129619Y-70437499D01*
X110129619Y-70437499D02*
X110177238Y-70294642D01*
X110177238Y-70294642D02*
X110272476Y-70199404D01*
X110272476Y-70199404D02*
X110367714Y-70151785D01*
X110367714Y-70151785D02*
X110558190Y-70104166D01*
X110558190Y-70104166D02*
X110701047Y-70104166D01*
X110701047Y-70104166D02*
X110891523Y-70151785D01*
X110891523Y-70151785D02*
X110986761Y-70199404D01*
X110986761Y-70199404D02*
X111082000Y-70294642D01*
X111082000Y-70294642D02*
X111129619Y-70437499D01*
X111129619Y-70437499D02*
X111129619Y-70675594D01*
X108589619Y-72104166D02*
X108113428Y-72437499D01*
X108589619Y-72675594D02*
X107589619Y-72675594D01*
X107589619Y-72675594D02*
X107589619Y-72294642D01*
X107589619Y-72294642D02*
X107637238Y-72199404D01*
X107637238Y-72199404D02*
X107684857Y-72151785D01*
X107684857Y-72151785D02*
X107780095Y-72104166D01*
X107780095Y-72104166D02*
X107922952Y-72104166D01*
X107922952Y-72104166D02*
X108018190Y-72151785D01*
X108018190Y-72151785D02*
X108065809Y-72199404D01*
X108065809Y-72199404D02*
X108113428Y-72294642D01*
X108113428Y-72294642D02*
X108113428Y-72675594D01*
X107589619Y-71770832D02*
X108589619Y-71104166D01*
X107589619Y-71104166D02*
X108589619Y-71770832D01*
X108589619Y-70723213D02*
X107589619Y-70723213D01*
X107589619Y-70723213D02*
X107589619Y-70485118D01*
X107589619Y-70485118D02*
X107637238Y-70342261D01*
X107637238Y-70342261D02*
X107732476Y-70247023D01*
X107732476Y-70247023D02*
X107827714Y-70199404D01*
X107827714Y-70199404D02*
X108018190Y-70151785D01*
X108018190Y-70151785D02*
X108161047Y-70151785D01*
X108161047Y-70151785D02*
X108351523Y-70199404D01*
X108351523Y-70199404D02*
X108446761Y-70247023D01*
X108446761Y-70247023D02*
X108542000Y-70342261D01*
X108542000Y-70342261D02*
X108589619Y-70485118D01*
X108589619Y-70485118D02*
X108589619Y-70723213D01*
X112669619Y-72745832D02*
X113669619Y-72412499D01*
X113669619Y-72412499D02*
X112669619Y-72079166D01*
X113574380Y-71174404D02*
X113622000Y-71222023D01*
X113622000Y-71222023D02*
X113669619Y-71364880D01*
X113669619Y-71364880D02*
X113669619Y-71460118D01*
X113669619Y-71460118D02*
X113622000Y-71602975D01*
X113622000Y-71602975D02*
X113526761Y-71698213D01*
X113526761Y-71698213D02*
X113431523Y-71745832D01*
X113431523Y-71745832D02*
X113241047Y-71793451D01*
X113241047Y-71793451D02*
X113098190Y-71793451D01*
X113098190Y-71793451D02*
X112907714Y-71745832D01*
X112907714Y-71745832D02*
X112812476Y-71698213D01*
X112812476Y-71698213D02*
X112717238Y-71602975D01*
X112717238Y-71602975D02*
X112669619Y-71460118D01*
X112669619Y-71460118D02*
X112669619Y-71364880D01*
X112669619Y-71364880D02*
X112717238Y-71222023D01*
X112717238Y-71222023D02*
X112764857Y-71174404D01*
X113574380Y-70174404D02*
X113622000Y-70222023D01*
X113622000Y-70222023D02*
X113669619Y-70364880D01*
X113669619Y-70364880D02*
X113669619Y-70460118D01*
X113669619Y-70460118D02*
X113622000Y-70602975D01*
X113622000Y-70602975D02*
X113526761Y-70698213D01*
X113526761Y-70698213D02*
X113431523Y-70745832D01*
X113431523Y-70745832D02*
X113241047Y-70793451D01*
X113241047Y-70793451D02*
X113098190Y-70793451D01*
X113098190Y-70793451D02*
X112907714Y-70745832D01*
X112907714Y-70745832D02*
X112812476Y-70698213D01*
X112812476Y-70698213D02*
X112717238Y-70602975D01*
X112717238Y-70602975D02*
X112669619Y-70460118D01*
X112669619Y-70460118D02*
X112669619Y-70364880D01*
X112669619Y-70364880D02*
X112717238Y-70222023D01*
X112717238Y-70222023D02*
X112764857Y-70174404D01*
%TO.C,A1*%
X124602714Y-66580904D02*
X125078904Y-66580904D01*
X124507476Y-66866619D02*
X124840809Y-65866619D01*
X124840809Y-65866619D02*
X125174142Y-66866619D01*
X126031285Y-66866619D02*
X125459857Y-66866619D01*
X125745571Y-66866619D02*
X125745571Y-65866619D01*
X125745571Y-65866619D02*
X125650333Y-66009476D01*
X125650333Y-66009476D02*
X125555095Y-66104714D01*
X125555095Y-66104714D02*
X125459857Y-66152333D01*
X124055095Y-106506619D02*
X124055095Y-107316142D01*
X124055095Y-107316142D02*
X124102714Y-107411380D01*
X124102714Y-107411380D02*
X124150333Y-107459000D01*
X124150333Y-107459000D02*
X124245571Y-107506619D01*
X124245571Y-107506619D02*
X124436047Y-107506619D01*
X124436047Y-107506619D02*
X124531285Y-107459000D01*
X124531285Y-107459000D02*
X124578904Y-107411380D01*
X124578904Y-107411380D02*
X124626523Y-107316142D01*
X124626523Y-107316142D02*
X124626523Y-106506619D01*
X125055095Y-107459000D02*
X125197952Y-107506619D01*
X125197952Y-107506619D02*
X125436047Y-107506619D01*
X125436047Y-107506619D02*
X125531285Y-107459000D01*
X125531285Y-107459000D02*
X125578904Y-107411380D01*
X125578904Y-107411380D02*
X125626523Y-107316142D01*
X125626523Y-107316142D02*
X125626523Y-107220904D01*
X125626523Y-107220904D02*
X125578904Y-107125666D01*
X125578904Y-107125666D02*
X125531285Y-107078047D01*
X125531285Y-107078047D02*
X125436047Y-107030428D01*
X125436047Y-107030428D02*
X125245571Y-106982809D01*
X125245571Y-106982809D02*
X125150333Y-106935190D01*
X125150333Y-106935190D02*
X125102714Y-106887571D01*
X125102714Y-106887571D02*
X125055095Y-106792333D01*
X125055095Y-106792333D02*
X125055095Y-106697095D01*
X125055095Y-106697095D02*
X125102714Y-106601857D01*
X125102714Y-106601857D02*
X125150333Y-106554238D01*
X125150333Y-106554238D02*
X125245571Y-106506619D01*
X125245571Y-106506619D02*
X125483666Y-106506619D01*
X125483666Y-106506619D02*
X125626523Y-106554238D01*
X126388428Y-106982809D02*
X126531285Y-107030428D01*
X126531285Y-107030428D02*
X126578904Y-107078047D01*
X126578904Y-107078047D02*
X126626523Y-107173285D01*
X126626523Y-107173285D02*
X126626523Y-107316142D01*
X126626523Y-107316142D02*
X126578904Y-107411380D01*
X126578904Y-107411380D02*
X126531285Y-107459000D01*
X126531285Y-107459000D02*
X126436047Y-107506619D01*
X126436047Y-107506619D02*
X126055095Y-107506619D01*
X126055095Y-107506619D02*
X126055095Y-106506619D01*
X126055095Y-106506619D02*
X126388428Y-106506619D01*
X126388428Y-106506619D02*
X126483666Y-106554238D01*
X126483666Y-106554238D02*
X126531285Y-106601857D01*
X126531285Y-106601857D02*
X126578904Y-106697095D01*
X126578904Y-106697095D02*
X126578904Y-106792333D01*
X126578904Y-106792333D02*
X126531285Y-106887571D01*
X126531285Y-106887571D02*
X126483666Y-106935190D01*
X126483666Y-106935190D02*
X126388428Y-106982809D01*
X126388428Y-106982809D02*
X126055095Y-106982809D01*
D11*
%TO.C,U3*%
X114330000Y-110270000D02*
X114330000Y-97510000D01*
X114330000Y-110270000D02*
X111670000Y-110270000D01*
X114330000Y-97510000D02*
X111670000Y-97510000D01*
X113000000Y-112870000D02*
X111670000Y-112870000D01*
X111670000Y-112870000D02*
X111670000Y-111540000D01*
X111670000Y-110270000D02*
X111670000Y-97510000D01*
%TO.C,U6*%
X115112000Y-66357500D02*
X115112000Y-96202500D01*
X100888000Y-66357500D02*
X115112000Y-66357500D01*
X115112000Y-96202500D02*
X100888000Y-96202500D01*
X100888000Y-96202500D02*
X100888000Y-66357500D01*
%TO.C,A1*%
X116297000Y-67544000D02*
X116297000Y-70214000D01*
X116297000Y-72754000D02*
X116297000Y-110984000D01*
X116297000Y-110984000D02*
X121377000Y-110984000D01*
X118967000Y-70214000D02*
X116297000Y-70214000D01*
X118967000Y-72754000D02*
X116297000Y-72754000D01*
X118967000Y-72754000D02*
X118967000Y-70214000D01*
X118967000Y-72754000D02*
X118967000Y-108314000D01*
X118967000Y-108314000D02*
X116297000Y-108314000D01*
X121377000Y-103104000D02*
X129257000Y-103104000D01*
X121377000Y-113524000D02*
X121377000Y-103104000D01*
X129257000Y-103104000D02*
X129257000Y-113524000D01*
X129257000Y-113524000D02*
X121377000Y-113524000D01*
X131667000Y-70214000D02*
X131667000Y-108314000D01*
X131667000Y-70214000D02*
X134337000Y-70214000D01*
X131667000Y-108314000D02*
X134337000Y-108314000D01*
X134337000Y-67544000D02*
X116297000Y-67544000D01*
X134337000Y-110984000D02*
X129257000Y-110984000D01*
X134337000Y-110984000D02*
X134337000Y-67544000D01*
%TD*%
M02*
