%TF.GenerationSoftware,KiCad,Pcbnew,7.0.1*%
%TF.CreationDate,2023-04-05T12:26:27+02:00*%
%TF.ProjectId,STS,5354532e-6b69-4636-9164-5f7063625858,rev?*%
%TF.SameCoordinates,Original*%
%TF.FileFunction,Copper,L2,Bot*%
%TF.FilePolarity,Positive*%
%FSLAX46Y46*%
G04 Gerber Fmt 4.6, Leading zero omitted, Abs format (unit mm)*
G04 Created by KiCad (PCBNEW 7.0.1) date 2023-04-05 12:26:27*
%MOMM*%
%LPD*%
G01*
G04 APERTURE LIST*
G04 Aperture macros list*
%AMRoundRect*
0 Rectangle with rounded corners*
0 $1 Rounding radius*
0 $2 $3 $4 $5 $6 $7 $8 $9 X,Y pos of 4 corners*
0 Add a 4 corners polygon primitive as box body*
4,1,4,$2,$3,$4,$5,$6,$7,$8,$9,$2,$3,0*
0 Add four circle primitives for the rounded corners*
1,1,$1+$1,$2,$3*
1,1,$1+$1,$4,$5*
1,1,$1+$1,$6,$7*
1,1,$1+$1,$8,$9*
0 Add four rect primitives between the rounded corners*
20,1,$1+$1,$2,$3,$4,$5,0*
20,1,$1+$1,$4,$5,$6,$7,0*
20,1,$1+$1,$6,$7,$8,$9,0*
20,1,$1+$1,$8,$9,$2,$3,0*%
G04 Aperture macros list end*
%TA.AperFunction,ComponentPad*%
%ADD10R,1.800000X1.800000*%
%TD*%
%TA.AperFunction,ComponentPad*%
%ADD11C,1.800000*%
%TD*%
%TA.AperFunction,ComponentPad*%
%ADD12R,1.700000X1.700000*%
%TD*%
%TA.AperFunction,ComponentPad*%
%ADD13O,1.700000X1.700000*%
%TD*%
%TA.AperFunction,ComponentPad*%
%ADD14C,1.524000*%
%TD*%
%TA.AperFunction,ComponentPad*%
%ADD15C,2.000000*%
%TD*%
%TA.AperFunction,ComponentPad*%
%ADD16R,1.600000X1.600000*%
%TD*%
%TA.AperFunction,ComponentPad*%
%ADD17O,1.600000X1.600000*%
%TD*%
%TA.AperFunction,SMDPad,CuDef*%
%ADD18R,2.000000X2.000000*%
%TD*%
%TA.AperFunction,SMDPad,CuDef*%
%ADD19RoundRect,0.237500X0.237500X-0.250000X0.237500X0.250000X-0.237500X0.250000X-0.237500X-0.250000X0*%
%TD*%
%TA.AperFunction,ViaPad*%
%ADD20C,0.800000*%
%TD*%
%TA.AperFunction,Conductor*%
%ADD21C,0.250000*%
%TD*%
G04 APERTURE END LIST*
D10*
%TO.P,D2,1,K*%
%TO.N,Earth*%
X108825000Y-97750000D03*
D11*
%TO.P,D2,2,A*%
%TO.N,/D8*%
X108825000Y-100290000D03*
%TD*%
D12*
%TO.P,U3,1,vcc*%
%TO.N,/5V*%
X113000000Y-111540000D03*
D13*
%TO.P,U3,2,gnd*%
%TO.N,Earth*%
X113000000Y-109000000D03*
%TO.P,U3,3,mosi*%
%TO.N,/D11*%
X113000000Y-106460000D03*
%TO.P,U3,4,miso*%
%TO.N,/D12*%
X113000000Y-103920000D03*
%TO.P,U3,5,cs*%
%TO.N,/D10*%
X113000000Y-101380000D03*
%TO.P,U3,6,sck*%
%TO.N,/D13*%
X113000000Y-98840000D03*
%TD*%
D14*
%TO.P,U6,1,VCC*%
%TO.N,/5V*%
X113207000Y-68262500D03*
%TO.P,U6,2,GND*%
%TO.N,Earth*%
X110667000Y-68262500D03*
%TO.P,U6,3,RXD*%
%TO.N,/RX*%
X108127000Y-68262500D03*
%TO.P,U6,4,TXD*%
%TO.N,/TX*%
X105587000Y-68262500D03*
%TO.P,U6,5,SET*%
%TO.N,unconnected-(U6-SET-Pad5)*%
X103047000Y-68262500D03*
%TD*%
D12*
%TO.P,M2,1,PWM*%
%TO.N,/D2*%
X108460000Y-63900000D03*
D13*
%TO.P,M2,2,+*%
%TO.N,/5V*%
X111000000Y-63900000D03*
%TO.P,M2,3,-*%
%TO.N,Earth*%
X113540000Y-63900000D03*
%TD*%
D12*
%TO.P,M1,1,PWM*%
%TO.N,/D4*%
X130460000Y-64000000D03*
D13*
%TO.P,M1,2,+*%
%TO.N,/5V*%
X133000000Y-64000000D03*
%TO.P,M1,3,-*%
%TO.N,Earth*%
X135540000Y-64000000D03*
%TD*%
D15*
%TO.P,U1,1*%
%TO.N,/5V*%
X103612500Y-109750000D03*
%TO.N,Earth*%
X107612500Y-109750000D03*
%TO.P,U1,2*%
%TO.N,/D6*%
X103612500Y-114250000D03*
X107612500Y-114250000D03*
%TD*%
D16*
%TO.P,A1,1,D1/TX*%
%TO.N,/TX*%
X117697000Y-71484000D03*
D17*
%TO.P,A1,2,D0/RX*%
%TO.N,/RX*%
X117697000Y-74024000D03*
%TO.P,A1,3,~{RESET}*%
%TO.N,unconnected-(A1-~{RESET}-Pad3)*%
X117697000Y-76564000D03*
%TO.P,A1,4,GND*%
%TO.N,Earth*%
X117697000Y-79104000D03*
%TO.P,A1,5,D2*%
%TO.N,/D2*%
X117697000Y-81644000D03*
%TO.P,A1,6,D3*%
%TO.N,/D3*%
X117697000Y-84184000D03*
%TO.P,A1,7,D4*%
%TO.N,/D4*%
X117697000Y-86724000D03*
%TO.P,A1,8,D5*%
%TO.N,unconnected-(A1-D5-Pad8)*%
X117697000Y-89264000D03*
%TO.P,A1,9,D6*%
%TO.N,/D6*%
X117697000Y-91804000D03*
%TO.P,A1,10,D7*%
%TO.N,/D7*%
X117697000Y-94344000D03*
%TO.P,A1,11,D8*%
%TO.N,/D8*%
X117697000Y-96884000D03*
%TO.P,A1,12,D9*%
%TO.N,/D9*%
X117697000Y-99424000D03*
%TO.P,A1,13,D10*%
%TO.N,/D10*%
X117697000Y-101964000D03*
%TO.P,A1,14,D11*%
%TO.N,/D11*%
X117697000Y-104504000D03*
%TO.P,A1,15,D12*%
%TO.N,/D12*%
X117697000Y-107044000D03*
%TO.P,A1,16,D13*%
%TO.N,/D13*%
X132937000Y-107044000D03*
%TO.P,A1,17,3V3*%
%TO.N,Net-(A1-3V3)*%
X132937000Y-104504000D03*
%TO.P,A1,18,AREF*%
%TO.N,unconnected-(A1-AREF-Pad18)*%
X132937000Y-101964000D03*
%TO.P,A1,19,A0*%
%TO.N,unconnected-(A1-A0-Pad19)*%
X132937000Y-99424000D03*
%TO.P,A1,20,A1*%
%TO.N,unconnected-(A1-A1-Pad20)*%
X132937000Y-96884000D03*
%TO.P,A1,21,A2*%
%TO.N,unconnected-(A1-A2-Pad21)*%
X132937000Y-94344000D03*
%TO.P,A1,22,A3*%
%TO.N,unconnected-(A1-A3-Pad22)*%
X132937000Y-91804000D03*
%TO.P,A1,23,A4*%
%TO.N,Net-(A1-A4)*%
X132937000Y-89264000D03*
%TO.P,A1,24,A5*%
%TO.N,Net-(A1-A5)*%
X132937000Y-86724000D03*
%TO.P,A1,25,A6*%
%TO.N,unconnected-(A1-A6-Pad25)*%
X132937000Y-84184000D03*
%TO.P,A1,26,A7*%
%TO.N,unconnected-(A1-A7-Pad26)*%
X132937000Y-81644000D03*
%TO.P,A1,27,+5V*%
%TO.N,/5V*%
X132937000Y-79104000D03*
%TO.P,A1,28,~{RESET}*%
%TO.N,unconnected-(A1-~{RESET}-Pad28)*%
X132937000Y-76564000D03*
%TO.P,A1,29,GND*%
%TO.N,Earth*%
X132937000Y-74024000D03*
%TO.P,A1,30,VIN*%
%TO.N,Net-(A1-VIN)*%
X132937000Y-71484000D03*
%TD*%
D12*
%TO.P,M3,1,PWM*%
%TO.N,/D3*%
X119460000Y-64000000D03*
D13*
%TO.P,M3,2,+*%
%TO.N,/5V*%
X122000000Y-64000000D03*
%TO.P,M3,3,-*%
%TO.N,Earth*%
X124540000Y-64000000D03*
%TD*%
D10*
%TO.P,D1,1,K*%
%TO.N,Earth*%
X108825000Y-103750000D03*
D11*
%TO.P,D1,2,A*%
%TO.N,/D9*%
X108825000Y-106290000D03*
%TD*%
D14*
%TO.P,U2,1,SDA*%
%TO.N,Net-(A1-3V3)*%
X136507000Y-92863000D03*
%TO.P,U2,2,SCL*%
%TO.N,Earth*%
X136507000Y-95403000D03*
%TO.P,U2,3,GND*%
%TO.N,Net-(A1-A5)*%
X136507000Y-97943000D03*
%TO.P,U2,4,VIN*%
%TO.N,Net-(A1-A4)*%
X136507000Y-100483000D03*
%TD*%
D18*
%TO.P,J2,1,Pin_1*%
%TO.N,Earth*%
X127140000Y-108350000D03*
%TD*%
D14*
%TO.P,U4,1,VCC*%
%TO.N,Net-(A1-3V3)*%
X137000000Y-70080000D03*
%TO.P,U4,2,GND*%
%TO.N,Earth*%
X137000000Y-72620000D03*
%TO.P,U4,3,SCL*%
%TO.N,Net-(A1-A5)*%
X137000000Y-75160000D03*
%TO.P,U4,4,SDA*%
%TO.N,Net-(A1-A4)*%
X137000000Y-77700000D03*
%TO.P,U4,5,XDA*%
%TO.N,unconnected-(U4-XDA-Pad5)*%
X137000000Y-80240000D03*
%TO.P,U4,6,XCL*%
%TO.N,unconnected-(U4-XCL-Pad6)*%
X137000000Y-82780000D03*
%TO.P,U4,7,ADD*%
%TO.N,unconnected-(U4-ADD-Pad7)*%
X137000000Y-85320000D03*
%TO.P,U4,8,INT*%
%TO.N,unconnected-(U4-INT-Pad8)*%
X137000000Y-87860000D03*
%TD*%
D18*
%TO.P,J1,1,Pin_1*%
%TO.N,Net-(J1-Pin_1)*%
X123090000Y-108350000D03*
%TD*%
D19*
%TO.P,R1,1*%
%TO.N,Net-(J1-Pin_1)*%
X123130000Y-100460000D03*
%TO.P,R1,2*%
%TO.N,Net-(A1-VIN)*%
X123130000Y-98635000D03*
%TD*%
D20*
%TO.N,/5V*%
X122000000Y-90000000D03*
%TD*%
D21*
%TO.N,Earth*%
X134341000Y-72620000D02*
X132937000Y-74024000D01*
X111929500Y-67000000D02*
X115463000Y-67000000D01*
X119000000Y-77801000D02*
X117697000Y-79104000D01*
X110667000Y-68262500D02*
X111929500Y-67000000D01*
X127140000Y-108350000D02*
X127140000Y-79821000D01*
X107612500Y-109750000D02*
X112250000Y-109750000D01*
X119000000Y-70537000D02*
X119000000Y-77801000D01*
X135540000Y-64000000D02*
X139000000Y-67460000D01*
X139000000Y-74100000D02*
X139000000Y-92910000D01*
X127140000Y-79821000D02*
X132937000Y-74024000D01*
X138480000Y-74100000D02*
X137000000Y-72620000D01*
X112250000Y-109750000D02*
X113000000Y-109000000D01*
X137000000Y-72620000D02*
X134341000Y-72620000D01*
X139000000Y-92910000D02*
X136507000Y-95403000D01*
X139000000Y-67460000D02*
X139000000Y-74100000D01*
X139000000Y-74100000D02*
X138480000Y-74100000D01*
X115463000Y-67000000D02*
X119000000Y-70537000D01*
%TO.N,Net-(A1-A4)*%
X137000000Y-77700000D02*
X135300000Y-79400000D01*
X135300000Y-86901000D02*
X132937000Y-89264000D01*
X135100000Y-91427000D02*
X132937000Y-89264000D01*
X135100000Y-99076000D02*
X135100000Y-91427000D01*
X136507000Y-100483000D02*
X135100000Y-99076000D01*
X135300000Y-79400000D02*
X135300000Y-86901000D01*
%TO.N,/5V*%
X113000000Y-111540000D02*
X116460000Y-111540000D01*
X122000000Y-106000000D02*
X122000000Y-90000000D01*
X116460000Y-111540000D02*
X122000000Y-106000000D01*
%TO.N,/RX*%
X113888500Y-74024000D02*
X117697000Y-74024000D01*
X108127000Y-68262500D02*
X113888500Y-74024000D01*
%TO.N,/D2*%
X109635000Y-65075000D02*
X115075000Y-65075000D01*
X119450000Y-79891000D02*
X117697000Y-81644000D01*
X108460000Y-63900000D02*
X109635000Y-65075000D01*
X119450000Y-69450000D02*
X119450000Y-79891000D01*
X115075000Y-65075000D02*
X119450000Y-69450000D01*
%TO.N,/D3*%
X119460000Y-64000000D02*
X119900000Y-64440000D01*
X119900000Y-64440000D02*
X119900000Y-81981000D01*
X119900000Y-81981000D02*
X117697000Y-84184000D01*
%TO.N,/D4*%
X120350000Y-74110000D02*
X120350000Y-84071000D01*
X120350000Y-84071000D02*
X117697000Y-86724000D01*
X130460000Y-64000000D02*
X120350000Y-74110000D01*
%TO.N,/D8*%
X108825000Y-100290000D02*
X112231000Y-96884000D01*
X112231000Y-96884000D02*
X117697000Y-96884000D01*
%TO.N,/D9*%
X108825000Y-106290000D02*
X111825000Y-103290000D01*
X112513299Y-100205000D02*
X116916000Y-100205000D01*
X116916000Y-100205000D02*
X117697000Y-99424000D01*
X111825000Y-103290000D02*
X111825000Y-100893299D01*
X111825000Y-100893299D02*
X112513299Y-100205000D01*
%TO.N,/D6*%
X120000000Y-107000000D02*
X120000000Y-94107000D01*
X107612500Y-114250000D02*
X111497500Y-110365000D01*
X120000000Y-94107000D02*
X117697000Y-91804000D01*
X111497500Y-110365000D02*
X116635000Y-110365000D01*
X103612500Y-114250000D02*
X107612500Y-114250000D01*
X116635000Y-110365000D02*
X120000000Y-107000000D01*
%TO.N,Net-(J1-Pin_1)*%
X123090000Y-100500000D02*
X123130000Y-100460000D01*
X123090000Y-108350000D02*
X123090000Y-100500000D01*
%TO.N,Net-(A1-VIN)*%
X123130000Y-98635000D02*
X123130000Y-81291000D01*
X123130000Y-81291000D02*
X132937000Y-71484000D01*
X123090000Y-81331000D02*
X132937000Y-71484000D01*
%TD*%
M02*
