%TF.GenerationSoftware,KiCad,Pcbnew,7.0.1*%
%TF.CreationDate,2023-04-24T16:46:27+02:00*%
%TF.ProjectId,STS,5354532e-6b69-4636-9164-5f7063625858,rev?*%
%TF.SameCoordinates,Original*%
%TF.FileFunction,Soldermask,Bot*%
%TF.FilePolarity,Negative*%
%FSLAX46Y46*%
G04 Gerber Fmt 4.6, Leading zero omitted, Abs format (unit mm)*
G04 Created by KiCad (PCBNEW 7.0.1) date 2023-04-24 16:46:27*
%MOMM*%
%LPD*%
G01*
G04 APERTURE LIST*
G04 Aperture macros list*
%AMRoundRect*
0 Rectangle with rounded corners*
0 $1 Rounding radius*
0 $2 $3 $4 $5 $6 $7 $8 $9 X,Y pos of 4 corners*
0 Add a 4 corners polygon primitive as box body*
4,1,4,$2,$3,$4,$5,$6,$7,$8,$9,$2,$3,0*
0 Add four circle primitives for the rounded corners*
1,1,$1+$1,$2,$3*
1,1,$1+$1,$4,$5*
1,1,$1+$1,$6,$7*
1,1,$1+$1,$8,$9*
0 Add four rect primitives between the rounded corners*
20,1,$1+$1,$2,$3,$4,$5,0*
20,1,$1+$1,$4,$5,$6,$7,0*
20,1,$1+$1,$6,$7,$8,$9,0*
20,1,$1+$1,$8,$9,$2,$3,0*%
G04 Aperture macros list end*
%ADD10RoundRect,0.500000X0.500000X1.500000X-0.500000X1.500000X-0.500000X-1.500000X0.500000X-1.500000X0*%
%ADD11RoundRect,0.500000X-1.500000X0.500000X-1.500000X-0.500000X1.500000X-0.500000X1.500000X0.500000X0*%
%ADD12C,1.524000*%
%ADD13RoundRect,0.500000X1.500000X-0.500000X1.500000X0.500000X-1.500000X0.500000X-1.500000X-0.500000X0*%
%ADD14R,1.700000X1.700000*%
%ADD15O,1.700000X1.700000*%
%ADD16C,2.200000*%
%ADD17R,1.600000X1.600000*%
%ADD18O,1.600000X1.600000*%
%ADD19RoundRect,0.237500X0.237500X-0.250000X0.237500X0.250000X-0.237500X0.250000X-0.237500X-0.250000X0*%
G04 APERTURE END LIST*
D10*
%TO.C,*%
X125200000Y-106300000D03*
%TD*%
%TO.C,*%
X127900000Y-106300000D03*
%TD*%
D11*
%TO.C,*%
X138600000Y-65100000D03*
%TD*%
%TO.C,*%
X138600000Y-62500000D03*
%TD*%
D12*
%TO.C,U2*%
X136507000Y-92863000D03*
X136507000Y-95403000D03*
X136507000Y-97943000D03*
X136507000Y-100483000D03*
%TD*%
D13*
%TO.C,GND*%
X105700000Y-105920000D03*
%TD*%
%TO.C,L1*%
X105700000Y-103380000D03*
%TD*%
%TO.C,GND*%
X105700000Y-100840000D03*
%TD*%
%TO.C,L2*%
X105700000Y-98300000D03*
%TD*%
D10*
%TO.C,REF\u002A\u002A7*%
X117260000Y-63800000D03*
%TD*%
%TO.C,REF\u002A\u002A5*%
X122340000Y-63800000D03*
%TD*%
D14*
%TO.C,U3*%
X113000000Y-111540000D03*
D15*
X113000000Y-109000000D03*
X113000000Y-106460000D03*
X113000000Y-103920000D03*
X113000000Y-101380000D03*
X113000000Y-98840000D03*
%TD*%
D10*
%TO.C,REF\u002A\u002A10*%
X109640000Y-63800000D03*
%TD*%
%TO.C,REF\u002A\u002A*%
X135040000Y-63800000D03*
%TD*%
%TO.C,REF\u002A\u002A11*%
X107100000Y-63800000D03*
%TD*%
D12*
%TO.C,U6*%
X113207000Y-68262500D03*
X110667000Y-68262500D03*
X108127000Y-68262500D03*
X105587000Y-68262500D03*
X103047000Y-68262500D03*
%TD*%
D10*
%TO.C,REF\u002A\u002A9*%
X112180000Y-63800000D03*
%TD*%
%TO.C,REF\u002A\u002A6*%
X119800000Y-63800000D03*
%TD*%
%TO.C,REF\u002A\u002A1*%
X132500000Y-63800000D03*
%TD*%
D16*
%TO.C,REF\u002A\u002A*%
X138000000Y-114000000D03*
%TD*%
D10*
%TO.C,REF\u002A\u002A2*%
X129960000Y-63800000D03*
%TD*%
%TO.C,REF\u002A\u002A3*%
X127420000Y-63800000D03*
%TD*%
%TO.C,REF\u002A\u002A8*%
X114720000Y-63800000D03*
%TD*%
D17*
%TO.C,A1*%
X117697000Y-71484000D03*
D18*
X117697000Y-74024000D03*
X117697000Y-76564000D03*
X117697000Y-79104000D03*
X117697000Y-81644000D03*
X117697000Y-84184000D03*
X117697000Y-86724000D03*
X117697000Y-89264000D03*
X117697000Y-91804000D03*
X117697000Y-94344000D03*
X117697000Y-96884000D03*
X117697000Y-99424000D03*
X117697000Y-101964000D03*
X117697000Y-104504000D03*
X117697000Y-107044000D03*
X132937000Y-107044000D03*
X132937000Y-104504000D03*
X132937000Y-101964000D03*
X132937000Y-99424000D03*
X132937000Y-96884000D03*
X132937000Y-94344000D03*
X132937000Y-91804000D03*
X132937000Y-89264000D03*
X132937000Y-86724000D03*
X132937000Y-84184000D03*
X132937000Y-81644000D03*
X132937000Y-79104000D03*
X132937000Y-76564000D03*
X132937000Y-74024000D03*
X132937000Y-71484000D03*
%TD*%
D16*
%TO.C,REF\u002A\u002A*%
X102000000Y-63700000D03*
%TD*%
D10*
%TO.C,REF\u002A\u002A4*%
X124880000Y-63800000D03*
%TD*%
D12*
%TO.C,U4*%
X137000000Y-70080000D03*
X137000000Y-72620000D03*
X137000000Y-75160000D03*
X137000000Y-77700000D03*
X137000000Y-80240000D03*
X137000000Y-82780000D03*
X137000000Y-85320000D03*
X137000000Y-87860000D03*
%TD*%
D19*
%TO.C,R1*%
X128900000Y-99425000D03*
X128900000Y-97600000D03*
%TD*%
M02*
