%TF.GenerationSoftware,KiCad,Pcbnew,7.0.1*%
%TF.CreationDate,2023-04-03T23:21:57+02:00*%
%TF.ProjectId,_TS,6054532e-6b69-4636-9164-5f7063625858,rev?*%
%TF.SameCoordinates,Original*%
%TF.FileFunction,Soldermask,Bot*%
%TF.FilePolarity,Negative*%
%FSLAX46Y46*%
G04 Gerber Fmt 4.6, Leading zero omitted, Abs format (unit mm)*
G04 Created by KiCad (PCBNEW 7.0.1) date 2023-04-03 23:21:57*
%MOMM*%
%LPD*%
G01*
G04 APERTURE LIST*
G04 Aperture macros list*
%AMRoundRect*
0 Rectangle with rounded corners*
0 $1 Rounding radius*
0 $2 $3 $4 $5 $6 $7 $8 $9 X,Y pos of 4 corners*
0 Add a 4 corners polygon primitive as box body*
4,1,4,$2,$3,$4,$5,$6,$7,$8,$9,$2,$3,0*
0 Add four circle primitives for the rounded corners*
1,1,$1+$1,$2,$3*
1,1,$1+$1,$4,$5*
1,1,$1+$1,$6,$7*
1,1,$1+$1,$8,$9*
0 Add four rect primitives between the rounded corners*
20,1,$1+$1,$2,$3,$4,$5,0*
20,1,$1+$1,$4,$5,$6,$7,0*
20,1,$1+$1,$6,$7,$8,$9,0*
20,1,$1+$1,$8,$9,$2,$3,0*%
G04 Aperture macros list end*
%ADD10RoundRect,0.237500X0.237500X-0.250000X0.237500X0.250000X-0.237500X0.250000X-0.237500X-0.250000X0*%
%ADD11R,2.000000X2.000000*%
%ADD12C,2.000000*%
%ADD13C,1.800000*%
%ADD14R,1.800000X1.800000*%
%ADD15C,1.524000*%
%ADD16R,1.600000X1.600000*%
%ADD17O,1.600000X1.600000*%
%ADD18R,1.700000X1.700000*%
%ADD19O,1.700000X1.700000*%
G04 APERTURE END LIST*
D10*
%TO.C,R1*%
X123130000Y-100460000D03*
X123130000Y-98635000D03*
%TD*%
D11*
%TO.C,J2*%
X127140000Y-108350000D03*
%TD*%
%TO.C,J1*%
X123090000Y-108350000D03*
%TD*%
D12*
%TO.C,U1*%
X107500000Y-112250000D03*
X103500000Y-112250000D03*
X103500000Y-107750000D03*
X107500000Y-107750000D03*
%TD*%
D13*
%TO.C,D3*%
X150390000Y-106175000D03*
D14*
X147850000Y-106175000D03*
%TD*%
D13*
%TO.C,D2*%
X144340000Y-106175000D03*
D14*
X141800000Y-106175000D03*
%TD*%
D13*
%TO.C,D1*%
X138290000Y-106175000D03*
D14*
X135750000Y-106175000D03*
%TD*%
D15*
%TO.C,U6*%
X113207000Y-69850000D03*
X110667000Y-69850000D03*
X108127000Y-69850000D03*
X105587000Y-69850000D03*
X103047000Y-69850000D03*
%TD*%
D16*
%TO.C,A1*%
X117697000Y-71484000D03*
D17*
X117697000Y-74024000D03*
X117697000Y-76564000D03*
X117697000Y-79104000D03*
X117697000Y-81644000D03*
X117697000Y-84184000D03*
X117697000Y-86724000D03*
X117697000Y-89264000D03*
X117697000Y-91804000D03*
X117697000Y-94344000D03*
X117697000Y-96884000D03*
X117697000Y-99424000D03*
X117697000Y-101964000D03*
X117697000Y-104504000D03*
X117697000Y-107044000D03*
X132937000Y-107044000D03*
X132937000Y-104504000D03*
X132937000Y-101964000D03*
X132937000Y-99424000D03*
X132937000Y-96884000D03*
X132937000Y-94344000D03*
X132937000Y-91804000D03*
X132937000Y-89264000D03*
X132937000Y-86724000D03*
X132937000Y-84184000D03*
X132937000Y-81644000D03*
X132937000Y-79104000D03*
X132937000Y-76564000D03*
X132937000Y-74024000D03*
X132937000Y-71484000D03*
%TD*%
D15*
%TO.C,U4*%
X150495000Y-87503000D03*
X150495000Y-84963000D03*
X150495000Y-82423000D03*
X150495000Y-79883000D03*
X150495000Y-77343000D03*
X150495000Y-74803000D03*
X150495000Y-72263000D03*
X150495000Y-69723000D03*
%TD*%
D18*
%TO.C,U3*%
X113000000Y-111540000D03*
D19*
X113000000Y-109000000D03*
X113000000Y-106460000D03*
X113000000Y-103920000D03*
X113000000Y-101380000D03*
X113000000Y-98840000D03*
%TD*%
D15*
%TO.C,U2*%
X147447000Y-99187000D03*
X147447000Y-96647000D03*
X147447000Y-94107000D03*
X147447000Y-91567000D03*
%TD*%
D18*
%TO.C,M3*%
X123475000Y-65375000D03*
D19*
X126015000Y-65375000D03*
X128555000Y-65375000D03*
%TD*%
D18*
%TO.C,M2*%
X113460000Y-65375000D03*
D19*
X116000000Y-65375000D03*
X118540000Y-65375000D03*
%TD*%
D18*
%TO.C,M1*%
X133475000Y-65375000D03*
D19*
X136015000Y-65375000D03*
X138555000Y-65375000D03*
%TD*%
M02*
