%TF.GenerationSoftware,KiCad,Pcbnew,7.0.1*%
%TF.CreationDate,2023-04-03T23:21:57+02:00*%
%TF.ProjectId,_TS,6054532e-6b69-4636-9164-5f7063625858,rev?*%
%TF.SameCoordinates,Original*%
%TF.FileFunction,Legend,Bot*%
%TF.FilePolarity,Positive*%
%FSLAX46Y46*%
G04 Gerber Fmt 4.6, Leading zero omitted, Abs format (unit mm)*
G04 Created by KiCad (PCBNEW 7.0.1) date 2023-04-03 23:21:57*
%MOMM*%
%LPD*%
G01*
G04 APERTURE LIST*
%ADD10C,0.150000*%
%ADD11C,0.120000*%
G04 APERTURE END LIST*
D10*
%TO.C,R1*%
X125022619Y-99380833D02*
X124546428Y-99047500D01*
X125022619Y-98809405D02*
X124022619Y-98809405D01*
X124022619Y-98809405D02*
X124022619Y-99190357D01*
X124022619Y-99190357D02*
X124070238Y-99285595D01*
X124070238Y-99285595D02*
X124117857Y-99333214D01*
X124117857Y-99333214D02*
X124213095Y-99380833D01*
X124213095Y-99380833D02*
X124355952Y-99380833D01*
X124355952Y-99380833D02*
X124451190Y-99333214D01*
X124451190Y-99333214D02*
X124498809Y-99285595D01*
X124498809Y-99285595D02*
X124546428Y-99190357D01*
X124546428Y-99190357D02*
X124546428Y-98809405D01*
X125022619Y-100333214D02*
X125022619Y-99761786D01*
X125022619Y-100047500D02*
X124022619Y-100047500D01*
X124022619Y-100047500D02*
X124165476Y-99952262D01*
X124165476Y-99952262D02*
X124260714Y-99857024D01*
X124260714Y-99857024D02*
X124308333Y-99761786D01*
%TO.C,J2*%
X124604619Y-108016666D02*
X125318904Y-108016666D01*
X125318904Y-108016666D02*
X125461761Y-107969047D01*
X125461761Y-107969047D02*
X125557000Y-107873809D01*
X125557000Y-107873809D02*
X125604619Y-107730952D01*
X125604619Y-107730952D02*
X125604619Y-107635714D01*
X124699857Y-108445238D02*
X124652238Y-108492857D01*
X124652238Y-108492857D02*
X124604619Y-108588095D01*
X124604619Y-108588095D02*
X124604619Y-108826190D01*
X124604619Y-108826190D02*
X124652238Y-108921428D01*
X124652238Y-108921428D02*
X124699857Y-108969047D01*
X124699857Y-108969047D02*
X124795095Y-109016666D01*
X124795095Y-109016666D02*
X124890333Y-109016666D01*
X124890333Y-109016666D02*
X125033190Y-108969047D01*
X125033190Y-108969047D02*
X125604619Y-108397619D01*
X125604619Y-108397619D02*
X125604619Y-109016666D01*
%TO.C,J1*%
X120554619Y-108016666D02*
X121268904Y-108016666D01*
X121268904Y-108016666D02*
X121411761Y-107969047D01*
X121411761Y-107969047D02*
X121507000Y-107873809D01*
X121507000Y-107873809D02*
X121554619Y-107730952D01*
X121554619Y-107730952D02*
X121554619Y-107635714D01*
X121554619Y-109016666D02*
X121554619Y-108445238D01*
X121554619Y-108730952D02*
X120554619Y-108730952D01*
X120554619Y-108730952D02*
X120697476Y-108635714D01*
X120697476Y-108635714D02*
X120792714Y-108540476D01*
X120792714Y-108540476D02*
X120840333Y-108445238D01*
D11*
%TO.C,R1*%
X123652500Y-99802224D02*
X123652500Y-99292776D01*
X122607500Y-99802224D02*
X122607500Y-99292776D01*
%TO.C,J2*%
X125940000Y-109550000D02*
X128340000Y-109550000D01*
X125940000Y-107150000D02*
X125940000Y-109550000D01*
X128340000Y-107150000D02*
X125940000Y-107150000D01*
X128340000Y-109550000D02*
X128340000Y-107150000D01*
%TO.C,J1*%
X124290000Y-109550000D02*
X124290000Y-107150000D01*
X124290000Y-107150000D02*
X121890000Y-107150000D01*
X121890000Y-107150000D02*
X121890000Y-109550000D01*
X121890000Y-109550000D02*
X124290000Y-109550000D01*
%TD*%
M02*
